<svg width="20" height="20" viewBox="0 0 20 20" fill="none" xmlns="http://www.w3.org/2000/svg">
<path d="M6.48436 12.8646H17.0704C17.3326 12.8646 17.5625 12.6743 17.6335 12.3979L19.9774 3.39266C20.0277 3.19852 19.9932 2.98998 19.8823 2.82867C19.7712 2.66786 19.5985 2.57289 19.4142 2.57289H5.13167L4.71282 0.503857C4.65331 0.209214 4.41527 0 4.14061 0H0.585936C0.262145 0 0 0.287775 0 0.643222C0 0.998836 0.262145 1.28644 0.585936 1.28644H3.67034L5.78627 11.7388C5.16371 12.0359 4.72655 12.7162 4.72655 13.5078C4.72655 14.5718 5.51512 15.4375 6.48436 15.4375H17.0704C17.3944 15.4375 17.6564 15.1499 17.6564 14.7943C17.6564 14.4388 17.3944 14.151 17.0704 14.151H6.48436C6.16163 14.151 5.89842 13.8628 5.89842 13.5078C5.89842 13.1529 6.16163 12.8646 6.48436 12.8646Z" fill="#AAAAAA"/>
<path d="M5.89844 17.3672C5.89844 18.4313 6.687 19.2968 7.65639 19.2968C8.62562 19.2968 9.41418 18.4313 9.41418 17.3672C9.41418 16.3032 8.62562 15.4375 7.65639 15.4375C6.687 15.4375 5.89844 16.3032 5.89844 17.3672Z" fill="#B8B8B8"/>
<path d="M14.1406 17.3672C14.1406 18.4313 14.9292 19.2968 15.8984 19.2968C16.8678 19.2968 17.6562 18.4313 17.6562 17.3672C17.6562 16.3032 16.8678 15.4375 15.8984 15.4375C14.9292 15.4375 14.1406 16.3032 14.1406 17.3672Z" fill="#B8B8B8"/>
</svg>
