<svg width="35" height="35" viewBox="0 0 35 35" fill="none" xmlns="http://www.w3.org/2000/svg">
<path d="M3.25951 35.0001C1.46209 35.0001 0 33.5374 0 31.7406C0 30.7753 0.42395 29.8653 1.16346 29.2443L7.24441 24.1377L7.97038 25.002L1.88943 30.1086C1.40621 30.515 1.12903 31.1089 1.12903 31.7406C1.12903 32.9153 2.08475 33.871 3.25951 33.871C3.89063 33.871 4.48563 33.5939 4.89152 33.1101L9.99755 27.0297L10.8618 27.7551L5.75579 33.836C5.13539 34.5761 4.22539 35.0001 3.25951 35.0001Z" fill="#37495E"/>
<path d="M4.1646 31.6325C3.95524 31.8418 3.61581 31.8418 3.40646 31.6325L3.36638 31.5924C3.15702 31.383 3.15702 31.0436 3.36638 30.8342C3.57573 30.6249 3.91516 30.6249 4.12452 30.8342L4.1646 30.8743C4.37395 31.0837 4.37395 31.4231 4.1646 31.6325ZM5.74101 30.0555C5.52058 30.2759 5.1632 30.2759 4.94278 30.0555C4.72236 29.8351 4.72236 29.4777 4.94278 29.2573C5.1632 29.0369 5.52058 29.0369 5.74101 29.2573C5.96143 29.4777 5.96143 29.8351 5.74101 30.0555ZM7.33802 28.4591C7.11759 28.6795 6.76022 28.6795 6.53979 28.4591C6.31937 28.2386 6.31937 27.8813 6.53979 27.6608C6.76022 27.4404 7.11759 27.4404 7.33802 27.6608C7.55844 27.8813 7.55844 28.2386 7.33802 28.4591Z" fill="#37495E"/>
<path d="M8.23401 11.2903C7.87554 11.2903 7.52441 11.1446 7.27038 10.8917L4.28241 7.9032H1.69354C0.759836 7.9032 0 7.14336 0 6.20966V1.69354C0 0.759836 0.759836 0 1.69354 0H15.2419C16.1756 0 16.9354 0.759836 16.9354 1.69354V6.20966C16.9354 7.14336 16.1756 7.9032 15.2419 7.9032H9.59674V9.92755C9.59674 10.6789 8.98537 11.2903 8.23401 11.2903ZM1.69354 1.12903C1.3825 1.12903 1.12903 1.38193 1.12903 1.69354V6.20966C1.12903 6.52127 1.3825 6.77417 1.69354 6.77417H4.74982L8.0686 10.093C8.20352 10.2273 8.46771 10.1178 8.46771 9.92755V6.77417H15.2419C15.5529 6.77417 15.8064 6.52127 15.8064 6.20966V1.69354C15.8064 1.38193 15.5529 1.12903 15.2419 1.12903H1.69354Z" fill="#37495E"/>
<path d="M30.4836 19.1934V33.8707H29.3546V24.8385H24.8385V33.8707H23.7095V29.3546H19.1934V34.9998H34.9998V19.1934H30.4836ZM22.5804 33.8707H20.3224V30.4836H22.5804V33.8707ZM25.9675 25.9675H28.2256V33.8707H25.9675V25.9675ZM33.8707 33.8707H31.6127V20.3224H33.8707V33.8707Z" fill="#37495E"/>
<path d="M22.3722 15.179L20.9214 16.0789C21.6107 17.1396 22.0154 18.4018 22.0154 19.7584C22.0154 23.4938 18.9767 26.5325 15.2413 26.5325C11.5059 26.5325 8.4671 23.4938 8.4671 19.7584C8.4671 16.023 11.5059 12.9842 15.2413 12.9842C16.4719 12.9842 17.6235 13.3189 18.6193 13.8953L19.4729 12.0081C19.3018 11.6677 19.1562 11.3127 19.0337 10.9463C17.8697 10.4433 16.5882 10.1616 15.2413 10.1616C9.94952 10.1616 5.64453 14.4666 5.64453 19.7584C5.64453 25.0501 9.94952 29.3551 15.2413 29.3551C20.533 29.3551 24.838 25.0501 24.838 19.7584C24.838 18.4114 24.5563 17.13 24.0533 15.9654C23.4595 15.7672 22.895 15.5036 22.3722 15.179Z" fill="#EC5F5F"/>
<path d="M24.6237 6.20923L24.1721 3.95117H21.4512V5.0802H23.2463L24.1766 9.73123C23.5709 9.98922 23.1447 10.5904 23.1447 11.2899C23.1447 12.2236 23.9046 12.9834 24.8383 12.9834C25.772 12.9834 26.5318 12.2236 26.5318 11.2899C26.5318 11.0911 26.4912 10.9026 26.4279 10.7253H28.8943C28.8305 10.9026 28.7899 11.0911 28.7899 11.2899C28.7899 12.2236 29.5497 12.9834 30.4834 12.9834C31.4171 12.9834 32.1769 12.2236 32.1769 11.2899C32.1769 10.6497 31.8157 10.0976 31.2901 9.81027L32.0211 8.34817C32.1228 8.14438 32.1769 7.91519 32.1769 7.68713C32.1769 6.87253 31.5142 6.20923 30.699 6.20923H24.6237ZM25.4028 11.2899C25.4028 11.6015 25.1493 11.8544 24.8383 11.8544C24.5272 11.8544 24.2737 11.6015 24.2737 11.2899C24.2737 10.9782 24.5272 10.7253 24.8383 10.7253C25.1493 10.7253 25.4028 10.9782 25.4028 11.2899ZM30.4834 11.8544C30.1724 11.8544 29.9189 11.6015 29.9189 11.2899C29.9189 10.9782 30.1724 10.7253 30.4834 10.7253C30.7944 10.7253 31.0479 10.9782 31.0479 11.2899C31.0479 11.6015 30.7944 11.8544 30.4834 11.8544ZM31.0479 7.68713C31.0479 7.74132 31.0355 7.79495 31.0112 7.84293L30.1345 9.59631H25.3012L24.8495 7.33826H30.699C30.8915 7.33826 31.0479 7.49463 31.0479 7.68713Z" fill="#FF5252"/>
<path d="M32.5366 2.49839C30.6929 0.643401 28.134 -0.24458 25.5186 0.059693C21.8379 0.487595 18.8251 3.33952 18.1917 6.99419C17.8937 8.71426 18.1212 10.4445 18.85 12.0161L18.3459 13.1293C17.3721 12.6721 16.3142 12.4197 15.241 12.4197C11.1946 12.4197 7.90234 15.712 7.90234 19.7584C7.90234 23.8049 11.1946 27.0971 15.241 27.0971C19.2875 27.0971 22.5797 23.8049 22.5797 19.7584C22.5797 18.534 22.2726 17.3378 21.69 16.2658L22.3782 15.839C23.982 16.7473 25.7924 17.1018 27.6378 16.8642C31.4053 16.3775 34.4735 13.2942 34.9335 9.53281C35.2536 6.91685 34.3798 4.35226 32.5366 2.49839ZM21.4219 20.3229C21.3485 21.1302 21.1188 21.8917 20.7648 22.581H18.3842C18.5113 21.8827 18.5897 21.124 18.6151 20.3229H21.4219ZM17.2276 22.581H13.2545C13.1168 21.8985 13.0242 21.1398 12.9948 20.3229H17.4872C17.4579 21.1398 17.3653 21.8985 17.2276 22.581ZM9.06016 20.3229H11.8664C11.8923 21.124 11.9702 21.8827 12.0972 22.581H9.71669C9.36331 21.8917 9.13299 21.1302 9.06016 20.3229ZM9.06016 19.1939C9.13355 18.3866 9.36331 17.6251 9.71726 16.9358H12.0978C11.9708 17.6342 11.8923 18.3929 11.8669 19.1939H9.06016ZM12.9948 19.1939C13.0242 18.3771 13.1173 17.6183 13.2545 16.9358H16.9713C17.0305 17.2017 17.1626 17.4405 17.3472 17.6291C17.4201 18.1349 17.4596 18.6604 17.4788 19.1939H12.9948ZM17.6842 14.592C17.5792 14.3549 17.468 14.1342 17.3495 13.9338C17.5301 13.9998 17.7068 14.0738 17.8813 14.1567L17.6842 14.592ZM16.9385 15.8068H13.5424C13.9878 14.4108 14.6347 13.5488 15.241 13.5488C15.8405 13.5488 16.4982 14.443 16.9385 15.8068ZM13.1444 13.9208C12.8322 14.4396 12.5669 15.0758 12.3592 15.8068H10.4545C11.1585 14.9561 12.0865 14.3018 13.1444 13.9208ZM10.4545 23.71H12.3592C12.5669 24.4411 12.8322 25.0773 13.1444 25.5961C12.0865 25.215 11.1585 24.5607 10.4545 23.71ZM13.5424 23.71H16.9397C16.4943 25.1061 15.8473 25.9681 15.241 25.9681C14.6347 25.9681 13.9878 25.1061 13.5424 23.71ZM17.3376 25.5961C17.6498 25.0773 17.9151 24.4411 18.1229 23.71H20.0275C19.3236 24.5607 18.3955 25.215 17.3376 25.5961ZM21.4219 19.1939H18.6078C18.5948 18.8044 18.5688 18.4216 18.5293 18.044C18.7438 18.0208 18.9533 17.9633 19.1384 17.8487L20.7275 16.8636C21.112 17.5879 21.3474 18.3782 21.4219 19.1939ZM33.813 9.39676C33.4144 12.654 30.7567 15.3236 27.4938 15.7447C25.7901 15.9643 24.1237 15.6025 22.67 14.6992L22.3725 14.5146L18.5446 16.8884C18.3447 17.0109 18.0636 16.8534 18.0636 16.6214V16.561C18.0636 16.5164 18.0732 16.4718 18.0913 16.4317L20.0975 11.9958L19.9767 11.7547C19.2643 10.3367 19.0317 8.75716 19.3038 7.18725C19.8525 4.02202 22.4617 1.55227 25.649 1.18082C25.9425 1.14638 26.2349 1.13001 26.5257 1.13001C28.4828 1.13001 30.3446 1.89436 31.7356 3.29436C33.3337 4.90153 34.0907 7.12572 33.813 9.39676Z" fill="#37495E"/>
</svg>
