<svg width="35" height="35" viewBox="0 0 35 35" fill="none" xmlns="http://www.w3.org/2000/svg">
<path d="M8.27754 14.2188H6.57785C6.86277 9.04422 11.1623 4.92188 16.4068 4.92188C21.8346 4.92188 26.2506 9.33789 26.2506 14.7656C26.2506 20.1934 21.8346 24.6094 16.4068 24.6094V27.8906L15.86 28.0252V28.4375H20.3022C26.2539 26.7389 30.6256 21.2554 30.6256 14.7656C30.6256 6.92562 24.2468 0.546875 16.4068 0.546875C8.75004 0.546875 2.48723 6.63086 2.19848 14.2188H0.473633L4.37559 18.9011L8.27754 14.2188Z" fill="#EC5F5F"/>
<path d="M15.8594 28.9561V28.9845H15.9102L15.8594 28.9561Z" fill="#F0BC5E"/>
<path d="M34.4225 30.0781L27.3438 25.8311V27.8906H16.9531V24.1806L15.4252 23.8049C15.3579 23.6228 15.2819 23.4412 15.1971 23.2608L15.7057 22.4219H19.6875C21.1952 22.4219 22.4219 21.1952 22.4219 19.6875V9.84375C22.4219 8.33602 21.1952 7.10938 19.6875 7.10938H13.125C11.6173 7.10938 10.3906 8.33602 10.3906 9.84375V16.9531H11.4844V9.84375C11.4844 8.93922 12.2205 8.20312 13.125 8.20312H19.6875C20.592 8.20312 21.3281 8.93922 21.3281 9.84375V19.6875C21.3281 20.3995 20.8693 21.0011 20.2344 21.2275V9.29688H12.5781V19.2943L11.7387 19.8023C11.5582 19.7181 11.3766 19.6421 11.1945 19.5748L10.8194 18.0469H6.68117L6.30547 19.5748C6.12391 19.6421 5.94234 19.7181 5.76133 19.8029L4.41273 18.9864L1.48586 21.9133L2.30234 23.2619C2.21812 23.4429 2.14211 23.6245 2.0743 23.806L0.546875 24.1806V28.3188L2.07484 28.6945C2.14211 28.8766 2.21812 29.0582 2.30234 29.2387L1.48641 30.5873L4.41273 33.5136L5.76133 32.6971C5.94234 32.7819 6.12391 32.8573 6.30492 32.9252L6.68062 34.4531H10.8188L11.1945 32.9252C11.3761 32.8579 11.5577 32.7819 11.7387 32.6971L13.0873 33.5136L16.0141 30.5867L15.1977 29.2381C15.237 29.1539 15.2682 29.0686 15.3043 28.9838H28.4375V27.7621L32.2962 30.0781L28.4375 32.3936V31.1719H20.7812V32.2656H27.3438V34.3252L34.4225 30.0781ZM13.6719 19.1406H19.1406V21.3281H15.4295L13.6719 19.5705V19.1406ZM19.1406 18.0469H13.6719V14.7656H19.1406V18.0469ZM19.1406 10.3906V13.6719H13.6719V10.3906H19.1406ZM12.9199 32.1338L11.7863 31.4475L11.5139 31.5886C11.2 31.751 10.8823 31.8845 10.5695 31.9834L10.2769 32.0764L9.96187 33.3594H7.53758L7.22258 32.077L6.93 31.984C6.61719 31.8845 6.29945 31.7521 5.985 31.5891L5.71266 31.448L4.58008 32.1344L2.86562 30.4199L3.55195 29.2862L3.41086 29.0139C3.24844 28.7011 3.11555 28.3834 3.01602 28.0695L2.92305 27.7769L1.64062 27.4619V25.0376L2.92305 24.7226L3.01602 24.43C3.11555 24.1172 3.24844 23.7995 3.41086 23.4855L3.55195 23.2132L2.86562 22.0795L4.57953 20.3656L5.7132 21.052L5.98555 20.9109C6.29945 20.7484 6.61719 20.615 6.93 20.516L7.22258 20.423L7.53813 19.1406H9.96242L10.2774 20.423L10.57 20.516C10.8839 20.6155 11.2016 20.7484 11.5145 20.9109L11.7868 21.052L12.9205 20.3656L14.6344 22.0795L13.948 23.2132L14.0897 23.4861C14.2516 23.7984 14.3845 24.1161 14.4845 24.4305L14.5775 24.7231L15.8594 25.0381V27.4624L14.577 27.7774L14.484 28.07C14.3839 28.3845 14.2516 28.7016 14.0891 29.0145L13.9475 29.2873L14.6338 30.421L12.9199 32.1338Z" fill="#37495E"/>
<path d="M8.75 21.3281C6.03641 21.3281 3.82812 23.5364 3.82812 26.25C3.82812 28.9636 6.03641 31.1719 8.75 31.1719C11.4636 31.1719 13.6719 28.9636 13.6719 26.25C13.6719 23.5364 11.4636 21.3281 8.75 21.3281ZM8.75 30.0781C6.63906 30.0781 4.92188 28.3609 4.92188 26.25C4.92188 24.1391 6.63906 22.4219 8.75 22.4219C10.8609 22.4219 12.5781 24.1391 12.5781 26.25C12.5781 28.3609 10.8609 30.0781 8.75 30.0781Z" fill="#37495E"/>
<path d="M8.75 23.5156C7.24227 23.5156 6.01562 24.7423 6.01562 26.25C6.01562 27.7577 7.24227 28.9844 8.75 28.9844C10.2577 28.9844 11.4844 27.7577 11.4844 26.25C11.4844 24.7423 10.2577 23.5156 8.75 23.5156ZM8.75 27.8906C7.84547 27.8906 7.10938 27.1545 7.10938 26.25C7.10938 25.3455 7.84547 24.6094 8.75 24.6094C9.65453 24.6094 10.3906 25.3455 10.3906 26.25C10.3906 27.1545 9.65453 27.8906 8.75 27.8906Z" fill="#37495E"/>
<path d="M18.5938 31.1719H19.6875V32.2656H18.5938V31.1719Z" fill="#37495E"/>
<path d="M16.4062 31.1719H17.5V32.2656H16.4062V31.1719Z" fill="#37495E"/>
<path d="M14.7656 11.4844H15.8594V12.5781H14.7656V11.4844Z" fill="#37495E"/>
<path d="M16.9531 11.4844H18.0469V12.5781H16.9531V11.4844Z" fill="#37495E"/>
<path d="M16.9531 15.8594H18.0469V16.9531H16.9531V15.8594Z" fill="#37495E"/>
<path d="M14.7656 15.8594H15.8594V16.9531H14.7656V15.8594Z" fill="#37495E"/>
</svg>
