<svg width="35" height="35" viewBox="0 0 35 35" fill="none" xmlns="http://www.w3.org/2000/svg">
<path d="M20.3222 29.3549H3.38672V16.9355H20.3222V29.3549Z" fill="#EC5F5F"/>
<path d="M22.0159 1.69336C21.2809 1.69336 20.66 2.16699 20.4263 2.82239H2.82239V10.265C2.16699 10.4987 1.69336 11.1196 1.69336 11.8546C1.69336 12.7884 2.4532 13.5482 3.38691 13.5482C4.32062 13.5482 5.08046 12.7884 5.08046 11.8546C5.08046 11.1196 4.60683 10.4987 3.95142 10.265V3.95142H20.4263C20.66 4.60683 21.2809 5.08046 22.0159 5.08046C22.9497 5.08046 23.7095 4.32062 23.7095 3.38691C23.7095 2.4532 22.9497 1.69336 22.0159 1.69336ZM3.38691 12.4192C3.07529 12.4192 2.82239 12.1657 2.82239 11.8546C2.82239 11.5436 3.07529 11.2901 3.38691 11.2901C3.69852 11.2901 3.95142 11.5436 3.95142 11.8546C3.95142 12.1657 3.69852 12.4192 3.38691 12.4192ZM22.0159 3.95142C21.7043 3.95142 21.4514 3.69796 21.4514 3.38691C21.4514 3.07586 21.7043 2.82239 22.0159 2.82239C22.3276 2.82239 22.5805 3.07586 22.5805 3.38691C22.5805 3.69796 22.3276 3.95142 22.0159 3.95142Z" fill="#37495E"/>
<path d="M22.0165 6.20947C21.2815 6.20947 20.6606 6.6831 20.4269 7.3385H5.08105V8.46754H11.8552V10.265C11.1998 10.4987 10.7262 11.1196 10.7262 11.8546C10.7262 12.7883 11.4861 13.5482 12.4198 13.5482C13.3535 13.5482 14.1133 12.7883 14.1133 11.8546C14.1133 11.1196 13.6397 10.4987 12.9843 10.265V8.46754H20.4269C20.6606 9.12294 21.2815 9.59657 22.0165 9.59657C22.9503 9.59657 23.7101 8.83673 23.7101 7.90302C23.7101 6.96931 22.9503 6.20947 22.0165 6.20947ZM12.4198 12.4191C12.1082 12.4191 11.8552 12.1657 11.8552 11.8546C11.8552 11.5436 12.1082 11.2901 12.4198 11.2901C12.7314 11.2901 12.9843 11.5436 12.9843 11.8546C12.9843 12.1657 12.7314 12.4191 12.4198 12.4191ZM22.0165 8.46754C21.7049 8.46754 21.452 8.21407 21.452 7.90302C21.452 7.59197 21.7049 7.3385 22.0165 7.3385C22.3282 7.3385 22.5811 7.59197 22.5811 7.90302C22.5811 8.21407 22.3282 8.46754 22.0165 8.46754Z" fill="#37495E"/>
<path d="M19.7579 5.08057H18.6289V6.2096H19.7579V5.08057Z" fill="#37495E"/>
<path d="M17.5004 5.08057H5.08105V6.2096H17.5004V5.08057Z" fill="#37495E"/>
<path d="M18.0646 25.9678H16.9355V27.0968H18.0646V25.9678Z" fill="white"/>
<path d="M15.8068 25.9678H5.64551V27.0968H15.8068V25.9678Z" fill="white"/>
<path d="M27.0967 29.9193C27.0967 31.4756 28.3629 32.7418 29.9193 32.7418C31.4756 32.7418 32.7418 31.4756 32.7418 29.9193C32.7418 28.3629 31.4756 27.0967 29.9193 27.0967C28.3629 27.0967 27.0967 28.3629 27.0967 29.9193ZM31.6128 29.9193C31.6128 30.853 30.853 31.6128 29.9193 31.6128C28.9856 31.6128 28.2257 30.853 28.2257 29.9193C28.2257 28.9856 28.9856 28.2257 29.9193 28.2257C30.853 28.2257 31.6128 28.9856 31.6128 29.9193Z" fill="#37495E"/>
<path d="M22.5806 16.3708C22.5806 15.4371 21.8208 14.6772 20.8871 14.6772H2.82258C1.88887 14.6772 1.12903 15.4371 1.12903 16.3708V30.4837H0V33.3063C0 34.24 0.759839 34.9998 1.69355 34.9998H22.0161C22.9498 34.9998 23.7097 34.24 23.7097 33.3063V30.4837H22.5806V16.3708ZM2.25806 16.3708C2.25806 16.0597 2.51097 15.8063 2.82258 15.8063H20.8871C21.1987 15.8063 21.4516 16.0597 21.4516 16.3708V30.4837H2.25806V16.3708ZM22.5806 33.3063C22.5806 33.6179 22.3277 33.8708 22.0161 33.8708H1.69355C1.38194 33.8708 1.12903 33.6179 1.12903 33.3063V31.6127H22.5806V33.3063Z" fill="#37495E"/>
<path d="M35.0002 6.77419V2.02435L32.9758 0H31.0485V5.64516H28.7905V0H26.8632L24.8389 2.02435V6.77419C24.8389 8.33056 26.1051 9.59677 27.6614 9.59677V25.3694C25.9346 26.224 24.8389 27.9701 24.8389 29.9194C24.8389 32.721 27.1178 35 29.9195 35C32.7212 35 35.0002 32.721 35.0002 29.9194C35.0002 27.9706 33.9044 26.224 32.1776 25.3694V9.59677C33.7339 9.59677 35.0002 8.33056 35.0002 6.77419ZM33.8711 29.9194C33.8711 32.0978 32.098 33.871 29.9195 33.871C27.741 33.871 25.9679 32.0978 25.9679 29.9194C25.9679 28.3031 26.9377 26.8659 28.4382 26.2579L28.7905 26.1151V22.5806H31.0485V26.1151L31.4008 26.2579C32.9013 26.8659 33.8711 28.3031 33.8711 29.9194ZM31.0485 14.6774H28.7905V9.59677H31.0485V14.6774ZM28.7905 15.8065H31.0485V16.9355H28.7905V15.8065ZM28.7905 18.0645H31.0485V19.1935H28.7905V18.0645ZM28.7905 20.3226H31.0485V21.4516H28.7905V20.3226ZM27.6614 8.46774C26.7277 8.46774 25.9679 7.7079 25.9679 6.77419V2.49177L27.3306 1.12903H27.6614V6.77419H32.1776V1.12903H32.5084L33.8711 2.49177V6.77419C33.8711 7.7079 33.1113 8.46774 32.1776 8.46774H27.6614Z" fill="#37495E"/>
</svg>
