<svg width="35" height="35" viewBox="0 0 35 35" fill="none" xmlns="http://www.w3.org/2000/svg">
<path d="M23.5164 23.195L20.0088 19.6873L22.4227 17.2734L23.5164 18.3672L27.8914 13.9922L30.3054 16.4061L23.5164 23.195Z" fill="#EC5F5F"/>
<path d="M34.4531 9.84375H31.8123C29.3546 9.84375 26.9752 9.12351 24.9096 7.74594L24.5886 7.55945L24.2873 7.76016C22.2436 9.12351 19.8641 9.84375 17.4065 9.84375H16.9252C16.6458 6.48047 13.825 3.82812 10.3906 3.82812C6.77195 3.82812 3.82812 6.77195 3.82812 10.3906C3.82812 14.0093 6.77195 16.9531 10.3906 16.9531C12.0203 16.9531 13.5734 16.3412 14.7656 15.2753V16.5599C14.7656 19.5338 15.7626 22.3524 17.4727 24.6373L15.633 31.383L18.3334 30.7076L20.3771 34.1141L22.2108 28.613C22.9239 28.9734 23.6715 29.2786 24.4552 29.5094L24.6094 29.5542L24.7636 29.5088C25.5473 29.278 26.2948 28.9729 27.008 28.6125L28.8416 34.1135L30.8853 30.707L33.5858 31.3824L31.7461 24.6367C33.4562 22.3519 34.4531 19.5333 34.4531 16.5594V9.84375ZM10.3906 15.8594C7.37516 15.8594 4.92188 13.4061 4.92188 10.3906C4.92188 7.37516 7.37516 4.92187 10.3906 4.92187C13.2213 4.92187 15.5564 7.08422 15.8315 9.84375H14.7656V13.6604C13.7337 15.0374 12.1138 15.8594 10.3906 15.8594ZM20.0916 31.5115L18.8541 29.4492L17.1795 29.8676L18.3274 25.6577C19.1762 26.588 20.154 27.4017 21.239 28.0689L20.0916 31.5115ZM32.0392 29.8676L30.3647 29.4492L29.1271 31.5115L27.9798 28.0689C29.0648 27.4017 30.0426 26.588 30.8913 25.6577L32.0392 29.8676ZM33.3594 16.5594C33.3594 21.9702 29.7697 26.8215 24.6094 28.4134C19.4491 26.8215 15.8594 21.9702 15.8594 16.5594V10.9375H17.4065C19.962 10.9375 22.4394 10.2216 24.6088 8.855C26.7679 10.2189 29.2513 10.9375 31.8123 10.9375H33.3594V16.5594Z" fill="#37495E"/>
<path d="M10.3906 7.10938C8.58102 7.10938 7.10938 8.58102 7.10938 10.3906C7.10938 12.2002 8.58102 13.6719 10.3906 13.6719C12.2002 13.6719 13.6719 12.2002 13.6719 10.3906C13.6719 8.58102 12.2002 7.10938 10.3906 7.10938ZM10.3906 12.5781C9.18422 12.5781 8.20312 11.597 8.20312 10.3906C8.20312 9.18422 9.18422 8.20312 10.3906 8.20312C11.597 8.20312 12.5781 9.18422 12.5781 10.3906C12.5781 11.597 11.597 12.5781 10.3906 12.5781Z" fill="#37495E"/>
<path d="M24.8708 10.2749L24.6099 10.1333L24.3491 10.2749C22.2556 11.4092 19.886 12.0167 17.4967 12.031L16.9531 12.0342V16.5596C16.9531 21.3049 19.9549 25.5803 24.4229 27.198L24.6094 27.2653L24.7959 27.198C29.2638 25.5803 32.2656 21.3049 32.2656 16.5596V12.0342L31.722 12.031C29.3344 12.0167 26.9653 11.4092 24.8708 10.2749ZM31.1719 16.5596C31.1719 20.7799 28.543 24.5888 24.6094 26.0999C20.6757 24.5883 18.0469 20.7793 18.0469 16.5596V13.1116C20.3317 13.0181 22.5843 12.422 24.6099 11.3742C26.6361 12.422 28.8881 13.0181 31.1719 13.1116V16.5596Z" fill="#37495E"/>
<path d="M20 11.8V8.2H17.9642C17.7941 7.5412 17.5353 6.91975 17.1974 6.34825L18.6369 4.9087L16.0913 2.36305L14.6518 3.8026C14.0803 3.4651 13.4588 3.2059 12.8 3.0358V1H9.2V3.0358C8.5412 3.2059 7.91975 3.46465 7.34825 3.8026L5.9087 2.36305L3.36305 4.9087L4.8026 6.34825C4.4651 6.91975 4.2059 7.5412 4.0358 8.2H2V11.8H4.0358C4.2059 12.4588 4.46465 13.0803 4.8026 13.6518L3.36305 15.0913L5.9087 17.6369L7.3478 16.1978C7.9193 16.5353 8.54075 16.7945 9.19955 16.9647V19H12.7996V16.9642C13.4584 16.7941 14.0798 16.5353 14.6513 16.1974L16.0904 17.6365L18.6361 15.0908L17.1965 13.6513C17.534 13.0798 17.7932 12.4584 17.9633 11.7996H20V11.8Z" fill="#EC5F5F"/>
<path d="M11 15C8.24318 15 6 12.7568 6 10C6 7.24318 8.24318 5 11 5C13.7568 5 16 7.24318 16 10C16 12.7568 13.7568 15 11 15ZM11 5.90909C8.74409 5.90909 6.90909 7.74455 6.90909 10C6.90909 12.2555 8.74409 14.0909 11 14.0909C13.2559 14.0909 15.0909 12.2555 15.0909 10C15.0909 7.74455 13.2559 5.90909 11 5.90909Z" fill="white"/>
</svg>
