<svg width="35" height="35" viewBox="0 0 35 35" fill="none" xmlns="http://www.w3.org/2000/svg">
<path d="M6.61205 23.1455L6.20898 28.7907L7.33802 29.9197L8.46705 28.7907L8.06398 23.1455H6.61205Z" fill="#37495E"/>
<path d="M33.3053 20.8872H20.8859C19.9522 20.8872 19.1924 21.647 19.1924 22.5808V30.484C19.1924 31.4177 19.9522 32.1775 20.8859 32.1775H33.3053C34.239 32.1775 34.9988 31.4177 34.9988 30.484V22.5808C34.9988 21.647 34.239 20.8872 33.3053 20.8872ZM23.144 27.0969C22.5202 27.0969 22.015 26.5916 22.015 25.9679C22.015 25.3441 22.5202 24.8388 23.144 24.8388C23.7678 24.8388 24.273 25.3441 24.273 25.9679C24.273 26.5916 23.7678 27.0969 23.144 27.0969ZM27.0956 29.3549C26.4718 29.3549 25.9666 28.8497 25.9666 28.2259C25.9666 27.6021 26.4718 27.0969 27.0956 27.0969C27.7194 27.0969 28.2246 27.6021 28.2246 28.2259C28.2246 28.8497 27.7194 29.3549 27.0956 29.3549ZM31.0472 25.9679C30.4234 25.9679 29.9182 25.4626 29.9182 24.8388C29.9182 24.215 30.4234 23.7098 31.0472 23.7098C31.671 23.7098 32.1763 24.215 32.1763 24.8388C32.1763 25.4626 31.671 25.9679 31.0472 25.9679Z" fill="#FF5252" fill-opacity="0.25"/>
<path d="M31.0479 23.1445C30.1142 23.1445 29.3544 23.9044 29.3544 24.8381C29.3544 25.0526 29.3984 25.2564 29.4718 25.4455L27.9352 26.7625C27.6868 26.6197 27.4029 26.5316 27.0963 26.5316C26.6752 26.5316 26.2942 26.692 25.9978 26.9471L24.8083 26.2674C24.8253 26.1698 24.8383 26.0699 24.8383 25.9671C24.8383 25.0334 24.0784 24.2736 23.1447 24.2736C22.211 24.2736 21.4512 25.0334 21.4512 25.9671C21.4512 26.9008 22.211 27.6607 23.1447 27.6607C23.5658 27.6607 23.9469 27.5003 24.2433 27.2452L25.4327 27.9249C25.4158 28.0225 25.4028 28.1224 25.4028 28.2252C25.4028 29.1589 26.1626 29.9187 27.0963 29.9187C28.03 29.9187 28.7899 29.1589 28.7899 28.2252C28.7899 28.0107 28.7458 27.8069 28.6725 27.6178L30.2096 26.3007C30.4575 26.4436 30.7414 26.5316 31.0479 26.5316C31.9817 26.5316 32.7415 25.7718 32.7415 24.8381C32.7415 23.9044 31.9817 23.1445 31.0479 23.1445ZM23.1447 26.5316C22.8331 26.5316 22.5802 26.2787 22.5802 25.9671C22.5802 25.6555 22.8331 25.4026 23.1447 25.4026C23.4563 25.4026 23.7092 25.6555 23.7092 25.9671C23.7092 26.2787 23.4563 26.5316 23.1447 26.5316ZM27.0963 28.7897C26.7847 28.7897 26.5318 28.5368 26.5318 28.2252C26.5318 27.9136 26.7847 27.6607 27.0963 27.6607C27.4079 27.6607 27.6608 27.9136 27.6608 28.2252C27.6608 28.5368 27.4079 28.7897 27.0963 28.7897ZM31.0479 25.4026C30.7363 25.4026 30.4834 25.1497 30.4834 24.8381C30.4834 24.5265 30.7363 24.2736 31.0479 24.2736C31.3596 24.2736 31.6125 24.5265 31.6125 24.8381C31.6125 25.1497 31.3596 25.4026 31.0479 25.4026Z" fill="#FF5252"/>
<circle cx="7.5" cy="7.5" r="6.5" fill="#EC5F5F"/>
<path d="M7.33912 4.51637C7.96178 4.51637 8.46815 5.02274 8.46815 5.6454H9.59718C9.59718 4.59596 8.87517 3.71983 7.90364 3.46749V2.2583H6.7746V3.38733H5.08105V5.6454C5.08105 6.89072 6.0938 7.90346 7.33912 7.90346C7.96178 7.90346 8.46815 8.40983 8.46815 9.0325V10.1615H7.33912C6.71646 10.1615 6.21009 9.65516 6.21009 9.0325H5.08105C5.08105 10.0819 5.80307 10.9581 6.7746 11.2104V12.4196H7.90364V11.2906H9.59718V9.0325C9.59718 7.78717 8.58444 6.77443 7.33912 6.77443C6.71646 6.77443 6.21009 6.26806 6.21009 5.6454V4.51637H7.33912Z" fill="white"/>
<path d="M22.0159 10.1615H19.7578V16.9357H29.9191V6.77441H26.532V7.90345H24.2739V9.03248H22.0159V10.1615ZM20.8868 11.2905H22.0159V15.8067H20.8868V11.2905ZM27.661 7.90345H28.7901V15.8067H27.661V7.90345ZM26.532 9.03248V15.8067H25.403V9.03248H26.532ZM24.2739 10.1615V15.8067H23.1449V10.1615H24.2739Z" fill="#FF5252"/>
<path d="M30.4839 19.1935C31.4176 19.1935 32.1774 18.4337 32.1774 17.5V6.20968C32.1774 5.27597 31.4176 4.51613 30.4839 4.51613H14.101C12.9669 1.80024 10.3013 0 7.33871 0C3.29226 0 0 3.29226 0 7.33871C0 11.3852 3.29226 14.6774 7.33871 14.6774C8.9871 14.6774 10.5723 14.1112 11.8548 13.1047V17.5C11.8548 18.4337 12.6147 19.1935 13.5484 19.1935H14.1129V21.4516C14.1129 22.0743 13.6065 22.5806 12.9839 22.5806H10.0986C10.8331 21.8626 11.2903 20.8634 11.2903 19.7581C11.2903 17.5796 9.51718 15.8065 7.33871 15.8065C5.16024 15.8065 3.3871 17.5796 3.3871 19.7581C3.3871 20.9565 3.92564 22.0302 4.77129 22.7556C2.0396 23.4071 0 25.8622 0 28.7903V35H11.8548V28.2749C11.8548 27.8651 12.1473 27.5145 12.5498 27.4411L14.3556 27.1126C16.5048 26.7225 18.0645 24.8534 18.0645 22.6698V19.1935H30.4839ZM7.33871 13.5484C3.91492 13.5484 1.12903 10.7625 1.12903 7.33871C1.12903 3.91492 3.91492 1.12903 7.33871 1.12903C9.73056 1.12903 11.8927 2.51661 12.9201 4.64032C12.2969 4.8904 11.8548 5.49839 11.8548 6.20968V11.5799C10.6801 12.8298 9.04863 13.5484 7.33871 13.5484ZM4.51613 19.7581C4.51613 18.2017 5.78234 16.9355 7.33871 16.9355C8.89508 16.9355 10.1613 18.2017 10.1613 19.7581C10.1613 21.3144 8.89508 22.5806 7.33871 22.5806C5.78234 22.5806 4.51613 21.3144 4.51613 19.7581ZM16.9355 22.6698C16.9355 24.3075 15.7658 25.7092 14.1541 26.0022L12.3482 26.3302C11.4083 26.5012 10.7258 27.3192 10.7258 28.2749V33.871H3.95161V26.5323H2.82258V33.871H1.12903V28.7903C1.12903 25.9886 3.40798 23.7097 6.20968 23.7097H12.9839C14.2292 23.7097 15.2419 22.6969 15.2419 21.4516V16.6532C15.2419 16.1864 15.6219 15.8065 16.0887 15.8065C16.5556 15.8065 16.9355 16.1864 16.9355 16.6532V22.6698ZM16.0887 14.6774C14.9992 14.6774 14.1129 15.5637 14.1129 16.6532V18.0645H13.5484C13.2368 18.0645 12.9839 17.8116 12.9839 17.5V6.20968C12.9839 5.89806 13.2368 5.64516 13.5484 5.64516H30.4839C30.7955 5.64516 31.0484 5.89806 31.0484 6.20968V17.5C31.0484 17.8116 30.7955 18.0645 30.4839 18.0645H18.0645V16.6532C18.0645 15.5637 17.1782 14.6774 16.0887 14.6774Z" fill="#37495E"/>
<path d="M14.1133 7.33893C14.1133 7.02716 14.366 6.77441 14.6778 6.77441C14.9896 6.77441 15.2423 7.02716 15.2423 7.33893C15.2423 7.6507 14.9896 7.90345 14.6778 7.90345C14.366 7.90345 14.1133 7.6507 14.1133 7.33893Z" fill="#FF5252"/>
<path d="M16.3701 7.33893C16.3701 7.02716 16.6229 6.77441 16.9346 6.77441C17.2464 6.77441 17.4991 7.02716 17.4991 7.33893C17.4991 7.6507 17.2464 7.90345 16.9346 7.90345C16.6229 7.90345 16.3701 7.6507 16.3701 7.33893Z" fill="#FF5252"/>
<path d="M18.6299 7.33893C18.6299 7.02716 18.8826 6.77441 19.1944 6.77441C19.5062 6.77441 19.7589 7.02716 19.7589 7.33893C19.7589 7.6507 19.5062 7.90345 19.1944 7.90345C18.8826 7.90345 18.6299 7.6507 18.6299 7.33893Z" fill="#FF5252"/>
<path d="M14.1133 9.03223H18.6294V10.1613H14.1133V9.03223Z" fill="#FF5252"/>
<path d="M14.1133 11.2905H18.6294V12.4196H14.1133V11.2905Z" fill="#FF5252"/>
</svg>
