<svg width="35" height="35" viewBox="0 0 35 35" fill="none" xmlns="http://www.w3.org/2000/svg">
<path d="M11.3442 22.8491V24.8385H7.94103V22.8491H6.80664V32.1772C6.80664 33.7336 8.07886 34.9998 9.64263 34.9998C11.2064 34.9998 12.4786 33.7336 12.4786 32.1772V22.8491H11.3442ZM9.64263 33.8707C8.70448 33.8707 7.94103 33.1109 7.94103 32.1772V25.9675H11.3442V32.1772C11.3442 33.1109 10.5808 33.8707 9.64263 33.8707Z" fill="#37495E"/>
<path d="M16.4771 15.8347L16.2706 15.6292C15.5764 18.6358 12.8708 20.8871 9.64235 20.8871C5.88921 20.8871 2.83598 17.8483 2.83598 14.1129C2.83598 10.3775 5.88921 7.3387 9.64235 7.3387C12.8708 7.3387 15.5764 9.58999 16.2706 12.5966L16.4771 12.3911C17.1305 11.7408 17.8701 11.1977 18.667 10.7647C17.2978 7.12136 13.7749 4.51611 9.64235 4.51611C4.32544 4.51611 0 8.82112 0 14.1129C0 19.4047 4.32544 23.7097 9.64235 23.7097C13.7749 23.7097 17.2978 21.1044 18.667 17.461C17.8707 17.0286 17.1305 16.485 16.4771 15.8347Z" fill="#EC5F5F"/>
<path d="M34.1978 27.2617L32.8972 28.5562V28.2253H26.0908V34.9995H32.8972V30.1526L34.9998 28.0599L34.1978 27.2617ZM31.7628 33.8705H27.2252V29.3544H31.7628V29.6852L29.494 31.9433L28.1934 30.6488L27.3914 31.447L29.494 33.5397L31.7628 31.2816V33.8705Z" fill="#EC5F5F"/>
<path d="M32.8972 22.2503L34.9998 20.1576L34.1978 19.3594L32.8972 20.6538V20.323H26.0908V27.0972H32.8972V22.2503ZM27.2252 25.9682V21.452H31.7628V21.7828L29.494 24.0409L28.1934 22.7465L27.3914 23.5447L29.494 25.6374L31.7628 23.3793V25.9682H27.2252Z" fill="#EC5F5F"/>
<path d="M17.0166 28.7905H24.9574V33.8712H17.0166V28.7905Z" fill="#FFD9D9"/>
<path d="M17.0166 20.8872H24.9574V25.9679H17.0166V20.8872Z" fill="#FFD9D9"/>
<path d="M17.0166 28.7901C17.0166 28.4783 17.2693 28.2256 17.5811 28.2256H24.3928C24.7046 28.2256 24.9574 28.4783 24.9574 28.7901C24.9574 29.1019 24.7046 29.3546 24.3928 29.3546H17.5811C17.2693 29.3546 17.0166 29.1019 17.0166 28.7901Z" fill="#EC5F5F"/>
<path d="M17.0166 31.0484C17.0166 30.7366 17.2693 30.4839 17.5811 30.4839H24.3928C24.7046 30.4839 24.9574 30.7366 24.9574 31.0484C24.9574 31.3602 24.7046 31.6129 24.3928 31.6129H17.5811C17.2693 31.6129 17.0166 31.3602 17.0166 31.0484Z" fill="#EC5F5F"/>
<path d="M17.0166 33.3062C17.0166 32.9944 17.2693 32.7417 17.5811 32.7417H22.1241C22.4358 32.7417 22.6886 32.9944 22.6886 33.3062C22.6886 33.618 22.4358 33.8707 22.1241 33.8707H17.5811C17.2693 33.8707 17.0166 33.618 17.0166 33.3062Z" fill="#EC5F5F"/>
<path d="M23.8213 33.3062C23.8213 32.9944 24.0767 32.7417 24.3885 32.7417C24.7003 32.7417 24.9557 32.9944 24.9557 33.3062C24.9557 33.618 24.7003 33.8707 24.3885 33.8707C24.0767 33.8707 23.8213 33.618 23.8213 33.3062Z" fill="#EC5F5F"/>
<path d="M17.0166 20.8868C17.0166 20.575 17.2693 20.3223 17.5811 20.3223H24.3928C24.7046 20.3223 24.9574 20.575 24.9574 20.8868C24.9574 21.1986 24.7046 21.4513 24.3928 21.4513H17.5811C17.2693 21.4513 17.0166 21.1986 17.0166 20.8868Z" fill="#EC5F5F"/>
<path d="M17.0166 23.1456C17.0166 22.8338 17.2693 22.5811 17.5811 22.5811H24.3928C24.7046 22.5811 24.9574 22.8338 24.9574 23.1456C24.9574 23.4573 24.7046 23.7101 24.3928 23.7101H17.5811C17.2693 23.7101 17.0166 23.4573 17.0166 23.1456Z" fill="#EC5F5F"/>
<path d="M17.0166 25.4029C17.0166 25.0911 17.2693 24.8384 17.5811 24.8384H22.1241C22.4358 24.8384 22.6886 25.0911 22.6886 25.4029C22.6886 25.7147 22.4358 25.9674 22.1241 25.9674H17.5811C17.2693 25.9674 17.0166 25.7147 17.0166 25.4029Z" fill="#EC5F5F"/>
<path d="M23.8213 25.4029C23.8213 25.0911 24.0767 24.8384 24.3885 24.8384C24.7003 24.8384 24.9557 25.0911 24.9557 25.4029C24.9557 25.7147 24.7003 25.9674 24.3885 25.9674C24.0767 25.9674 23.8213 25.7147 23.8213 25.4029Z" fill="#EC5F5F"/>
<path d="M31.1966 12.7502L30.4348 11.992C28.5171 10.0834 25.9676 9.03226 23.2558 9.03226C20.7579 9.03226 18.404 9.93379 16.5487 11.5658C16.1449 10.4706 15.5022 9.50984 14.6804 8.74379L19.8305 4.16387L22.6886 7.00791L27.7934 1.92726V5.08065H28.9278V0H23.823V1.12903H26.9914L22.6886 5.41145L19.8748 2.61032L13.7808 8.02968C12.5954 7.23145 11.1689 6.7742 9.64309 6.7742C5.57742 6.7742 2.26953 10.0665 2.26953 14.1129C2.26953 18.1594 5.57742 21.4516 9.64309 21.4516C12.7786 21.4516 15.4943 19.521 16.5487 16.66C18.404 18.292 20.7579 19.1936 23.2558 19.1936C25.9676 19.1936 28.5171 18.1424 30.4348 16.2338L31.1966 15.4757C31.5624 15.111 31.7638 14.6272 31.7638 14.1129C31.7638 13.5986 31.5624 13.1143 31.1966 12.7502ZM27.2262 14.1129C27.2262 16.2914 25.4452 18.0645 23.2558 18.0645C21.0664 18.0645 19.2854 16.2914 19.2854 14.1129C19.2854 11.9344 21.0664 10.1613 23.2558 10.1613C25.4452 10.1613 27.2262 11.9344 27.2262 14.1129ZM7.9415 20.0821C7.5456 19.9703 7.16671 19.8207 6.80711 19.6373V18.0645H7.9415V20.0821ZM12.4791 19.6457C12.1189 19.8281 11.74 19.9771 11.3447 20.0872V16.9355H12.4791V19.6457ZM13.6135 18.9079V15.8065H10.2103V20.2966C10.0231 20.313 9.83424 20.3226 9.64309 20.3226C9.45138 20.3226 9.26307 20.3107 9.0759 20.2938V16.9355H5.67271V18.8994C4.28819 17.7591 3.40393 16.0368 3.40393 14.1129C3.40393 10.6891 6.20304 7.90323 9.64309 7.90323C10.8314 7.90323 11.9465 8.2346 12.8988 8.81379L10.9306 10.5638C10.5642 10.3115 10.1218 10.1613 9.64309 10.1613C8.39186 10.1613 7.3743 11.174 7.3743 12.4194C7.3743 13.6647 8.39186 14.6774 9.64309 14.6774C10.8943 14.6774 11.9119 13.6647 11.9119 12.4194C11.9119 12.0598 11.8194 11.7244 11.6686 11.4224L13.8273 9.5025C14.6758 10.2674 15.3122 11.2694 15.6384 12.4278L15.3151 12.7502C14.9492 13.1148 14.7479 13.5986 14.7479 14.1129C14.7479 14.6272 14.9492 15.1115 15.3151 15.4757L15.6384 15.7974C15.2856 17.0518 14.5686 18.1232 13.6135 18.9079ZM10.7775 12.4194C10.7775 13.042 10.2687 13.5484 9.64309 13.5484C9.01747 13.5484 8.5087 13.042 8.5087 12.4194C8.5087 11.7967 9.01747 11.2903 9.64309 11.2903C10.2687 11.2903 10.7775 11.7967 10.7775 12.4194ZM16.1176 14.6774C15.9656 14.5261 15.8823 14.3263 15.8823 14.1129C15.8823 13.8995 15.9656 13.6997 16.1171 13.5484L16.8788 12.7902C17.5424 12.1298 18.2928 11.589 19.1022 11.1701C18.5061 12.0016 18.151 13.0155 18.151 14.1129C18.151 15.2103 18.5061 16.2242 19.1022 17.0557C18.2928 16.6369 17.5424 16.0961 16.8788 15.4356L16.1176 14.6774ZM30.3946 14.6774L29.6328 15.4356C28.9692 16.0961 28.2188 16.6369 27.4094 17.0557C28.0055 16.2242 28.3606 15.2103 28.3606 14.1129C28.3606 13.0155 28.0055 12.0016 27.4094 11.1701C28.2188 11.589 28.9692 12.1298 29.6328 12.7902L30.394 13.5484C30.546 13.6997 30.6294 13.8995 30.6294 14.1129C30.6294 14.3263 30.546 14.5261 30.3946 14.6774Z" fill="#37495E"/>
<path d="M23.2549 16.9357C24.8187 16.9357 26.0909 15.6695 26.0909 14.1131C26.0909 12.5567 24.8187 11.2905 23.2549 11.2905C21.6912 11.2905 20.4189 12.5567 20.4189 14.1131C20.4189 15.6695 21.6912 16.9357 23.2549 16.9357ZM23.2549 12.4196C24.1931 12.4196 24.9565 13.1794 24.9565 14.1131C24.9565 15.0468 24.1931 15.8067 23.2549 15.8067C22.3168 15.8067 21.5533 15.0468 21.5533 14.1131C21.5533 13.1794 22.3168 12.4196 23.2549 12.4196Z" fill="#37495E"/>
<path d="M23.2557 14.6779C23.5689 14.6779 23.8229 14.4251 23.8229 14.1133C23.8229 13.8016 23.5689 13.5488 23.2557 13.5488C22.9424 13.5488 22.6885 13.8016 22.6885 14.1133C22.6885 14.4251 22.9424 14.6779 23.2557 14.6779Z" fill="#37495E"/>
</svg>
