<svg width="35" height="35" viewBox="0 0 35 35" fill="none" xmlns="http://www.w3.org/2000/svg">
<path d="M35.0004 34.9999H22.5811V22.5806H35.0004V34.9999Z" fill="#EC5F5F"/>
<path d="M32.7421 24.8389H24.8389V25.9679H32.7421V24.8389Z" fill="white"/>
<path d="M32.7421 27.0967H24.8389V28.2257H32.7421V27.0967Z" fill="white"/>
<path d="M32.7421 29.355H24.8389V30.484H32.7421V29.355Z" fill="white"/>
<path d="M32.7423 31.6128H31.6133V32.7418H32.7423V31.6128Z" fill="white"/>
<path d="M30.484 31.6128H24.8389V32.7418H30.484V31.6128Z" fill="white"/>
<path d="M10.1613 6.77441H9.03223V7.90345H10.1613V6.77441Z" fill="#37495E"/>
<path d="M12.4191 6.77441H11.29V7.90345H12.4191V6.77441Z" fill="#37495E"/>
<path d="M14.6779 6.77441H13.5488V7.90345H14.6779V6.77441Z" fill="#37495E"/>
<path d="M7.90323 4.51613V3.95161C7.90323 1.77258 6.13008 0 3.95161 0C1.77315 0 0 1.77258 0 3.95161V28.923L2.62952 34.1831C2.88185 34.6867 3.38823 35 3.95161 35C4.515 35 5.02137 34.6867 5.27371 34.1831L7.90323 28.923V28.2258H22.5806V27.0968H7.90323V10.1613H31.6129V22.5806H32.7419V4.51613H7.90323ZM6.77419 28.2258H4.51613V9.03226H6.77419V28.2258ZM6.77419 7.90323H1.12903V6.77419H6.77419V7.90323ZM3.3871 9.03226V28.2258H1.12903V9.03226H3.3871ZM3.95161 1.12903C5.50798 1.12903 6.77419 2.39524 6.77419 3.95161V5.64516H1.12903V3.95161C1.12903 2.39524 2.39524 1.12903 3.95161 1.12903ZM4.26379 33.6779C4.14468 33.9167 3.75855 33.9161 3.64 33.6779L1.4779 29.3548H6.42532L4.26379 33.6779ZM7.90323 9.03226V5.64516H31.6129V9.03226H7.90323Z" fill="#37495E"/>
<path d="M21.4516 21.4518H9.03223V11.2905H21.4516V21.4518Z" fill="#EC5F5F"/>
<path d="M30.4843 11.2905H22.5811V12.4196H30.4843V11.2905Z" fill="#37495E"/>
<path d="M30.4843 13.5488H22.5811V14.6779H30.4843V13.5488Z" fill="#37495E"/>
<path d="M30.4843 15.8066H22.5811V16.9357H30.4843V15.8066Z" fill="#37495E"/>
<path d="M30.4843 18.0649H22.5811V19.194H30.4843V18.0649Z" fill="#37495E"/>
<path d="M30.4835 20.3228H29.3545V21.4518H30.4835V20.3228Z" fill="#37495E"/>
<path d="M28.2262 20.3228H22.5811V21.4518H28.2262V20.3228Z" fill="#37495E"/>
<path d="M21.4516 22.5811H9.03223V23.7101H21.4516V22.5811Z" fill="#37495E"/>
<path d="M21.4513 24.8389H11.29V25.9679H21.4513V24.8389Z" fill="#37495E"/>
<path d="M10.1613 24.8389H9.03223V25.9679H10.1613V24.8389Z" fill="#37495E"/>
</svg>
