<svg width="35" height="35" viewBox="0 0 35 35" fill="none" xmlns="http://www.w3.org/2000/svg">
<g clip-path="url(#clip0)">
<path d="M2.25781 2.82282C2.25781 3.13459 2.51055 3.38733 2.82233 3.38733C3.1341 3.38733 3.38684 3.13459 3.38684 2.82282C3.38684 2.51104 3.1341 2.2583 2.82233 2.2583C2.51055 2.2583 2.25781 2.51104 2.25781 2.82282Z" fill="#37495E"/>
<path d="M12.4191 22.5809H2.25781V6.77441H16.9352V15.8067H15.8062V7.90345H3.38684V21.4518H12.4191V22.5809Z" fill="#37495E"/>
<path d="M4.5166 2.82282C4.5166 3.13459 4.76934 3.38733 5.08112 3.38733C5.39289 3.38733 5.64563 3.13459 5.64563 2.82282C5.64563 2.51104 5.39289 2.2583 5.08112 2.2583C4.76934 2.2583 4.5166 2.51104 4.5166 2.82282Z" fill="#37495E"/>
<path d="M28.2256 9.59674C28.2256 9.90852 28.4783 10.1613 28.7901 10.1613C29.1019 10.1613 29.3546 9.90852 29.3546 9.59674C29.3546 9.28497 29.1019 9.03223 28.7901 9.03223C28.4783 9.03223 28.2256 9.28497 28.2256 9.59674Z" fill="#37495E"/>
<path d="M6.77441 2.82282C6.77441 3.13459 7.02716 3.38733 7.33893 3.38733C7.6507 3.38733 7.90345 3.13459 7.90345 2.82282C7.90345 2.51104 7.6507 2.2583 7.33893 2.2583C7.02716 2.2583 6.77441 2.51104 6.77441 2.82282Z" fill="#37495E"/>
<path d="M0 0V24.8387H12.4194V23.7097H1.12903V5.64516H30.4839V16.371H31.6129V0H0ZM1.12903 4.51613V1.12903H30.4839V4.51613H1.12903Z" fill="#37495E"/>
<path d="M34.9996 25.9678V21.4517H32.4457C32.2323 20.6252 31.9077 19.8456 31.4838 19.1287L33.2897 17.3228L30.0962 14.1294L28.2903 15.9352C27.5734 15.5119 26.7938 15.1867 25.9673 14.9733V12.4194H21.4512V14.9733C20.6248 15.1867 19.8452 15.5113 19.1282 15.9352L17.3223 14.1294L14.1289 17.3228L15.9348 19.1287C15.5114 19.8456 15.1862 20.6252 14.9728 21.4517H12.4189V25.9678H14.9728C15.1862 26.7943 15.5108 27.5739 15.9348 28.2908L14.1289 30.0967L17.3223 33.2902L19.1277 31.4848C19.8446 31.9082 20.6242 32.2334 21.4506 32.4468V35.0001H25.9668V32.4462C26.7932 32.2328 27.5728 31.9082 28.2898 31.4843L30.0951 33.2896L33.2885 30.0961L31.4827 28.2902C31.906 27.5733 32.2312 26.7937 32.4446 25.9673H34.9996V25.9678Z" fill="#EC5F5F"/>
<path d="M23.7097 29.9194C20.2859 29.9194 17.5 27.1335 17.5 23.7097C17.5 20.2859 20.2859 17.5 23.7097 17.5C27.1335 17.5 29.9194 20.2859 29.9194 23.7097C29.9194 27.1335 27.1335 29.9194 23.7097 29.9194ZM23.7097 18.629C20.908 18.629 18.629 20.9085 18.629 23.7097C18.629 26.5108 20.908 28.7903 23.7097 28.7903C26.5114 28.7903 28.7903 26.5108 28.7903 23.7097C28.7903 20.9085 26.5114 18.629 23.7097 18.629Z" fill="white"/>
<path d="M28.7903 6.77441H18.629C18.3172 6.77441 18.0645 7.02716 18.0645 7.33893C18.0645 7.6507 18.3172 7.90345 18.629 7.90345H28.7903C29.102 7.90345 29.3548 7.6507 29.3548 7.33893C29.3548 7.02716 29.102 6.77441 28.7903 6.77441Z" fill="#37495E"/>
<path d="M26.5322 9.03271H18.629C18.3172 9.03271 18.0645 9.28546 18.0645 9.59723C18.0645 9.909 18.3172 10.1617 18.629 10.1617H26.5322C26.844 10.1617 27.0967 9.909 27.0967 9.59723C27.0967 9.28546 26.844 9.03271 26.5322 9.03271Z" fill="#37495E"/>
</g>
<defs>
<clipPath id="clip0">
<rect width="35" height="35" fill="white"/>
</clipPath>
</defs>
</svg>
