<svg width="35" height="35" viewBox="0 0 35 35" fill="none" xmlns="http://www.w3.org/2000/svg">
<path d="M3.38684 2.2583H2.25781V3.38733H3.38684V2.2583Z" fill="#37495E"/>
<path d="M12.4191 22.5809H2.25781V6.77441H16.9352V15.8067H15.8062V7.90345H3.38684V21.4518H12.4191V22.5809Z" fill="#37495E"/>
<path d="M5.64563 2.2583H4.5166V3.38733H5.64563V2.2583Z" fill="#37495E"/>
<path d="M29.3546 9.03223H28.2256V10.1613H29.3546V9.03223Z" fill="#37495E"/>
<path d="M7.90345 2.2583H6.77441V3.38733H7.90345V2.2583Z" fill="#37495E"/>
<path d="M0 0V24.8387H12.4194V23.7097H1.12903V5.64516H30.4839V16.371H31.6129V0H0ZM1.12903 4.51613V1.12903H30.4839V4.51613H1.12903Z" fill="#37495E"/>
<path d="M33 25.4V21.6H30.8511C30.6716 20.9046 30.3984 20.2486 30.0417 19.6454L31.5612 18.1259L28.8741 15.4388L27.3546 16.9583C26.7514 16.6021 26.0954 16.3284 25.4 16.1489V14H21.6V16.1489C20.9046 16.3284 20.2486 16.6016 19.6454 16.9583L18.1259 15.4388L15.4388 18.1259L16.9583 19.6454C16.6021 20.2486 16.3284 20.9046 16.1489 21.6H14V25.4H16.1489C16.3284 26.0954 16.6016 26.7514 16.9583 27.3546L15.4388 28.8741L18.1259 31.5612L19.6449 30.0422C20.2481 30.3984 20.9041 30.672 21.5995 30.8516V33H25.3995V30.8511C26.0949 30.6716 26.7509 30.3984 27.3541 30.0417L28.8732 31.5608L31.5603 28.8737L30.0408 27.3541C30.397 26.7509 30.6706 26.0949 30.8501 25.3995H33V25.4Z" fill="#EC5F5F"/>
<path d="M23.5 29C20.4675 29 18 26.5325 18 23.5C18 20.4675 20.4675 18 23.5 18C26.5325 18 29 20.4675 29 23.5C29 26.5325 26.5325 29 23.5 29ZM23.5 19C21.0185 19 19 21.019 19 23.5C19 25.981 21.0185 28 23.5 28C25.9815 28 28 25.981 28 23.5C28 21.019 25.9815 19 23.5 19Z" fill="#37495E"/>
<path d="M29.3548 6.77441H18.0645V7.90345H29.3548V6.77441Z" fill="#37495E"/>
<path d="M27.0967 9.03271H18.0645V10.1617H27.0967V9.03271Z" fill="#37495E"/>
<circle cx="23.5" cy="23.5" r="4.5" fill="white"/>
</svg>
