<svg width="35" height="35" viewBox="0 0 35 35" fill="none" xmlns="http://www.w3.org/2000/svg">
<path d="M12 12C9.6 13.2 7 13.5 6 13.5C6 21.5 10 24.8333 12 25.5C16.8 23.1 17.6667 16.8333 17.5 14C16.3 14 13.3333 12.6667 12 12Z" fill="#EC5F5F"/>
<circle cx="12" cy="17" r="2" fill="white"/>
<ellipse cx="12" cy="20" rx="1" ry="2" fill="white"/>
<path d="M18.0639 12.9934L17.5349 12.9595C15.6415 12.8387 13.777 12.2606 12.1427 11.2874L11.8542 11.1152L11.5652 11.2874C9.9309 12.2606 8.06687 12.8387 6.17292 12.9595L5.64453 12.9934V16.2405C5.64453 20.4117 7.92066 24.2346 11.5855 26.2172L11.8542 26.3617L12.1229 26.2166C15.7878 24.2346 18.0639 20.4111 18.0639 16.2405V12.9934ZM16.9349 16.2405C16.9349 19.894 14.9957 23.2501 11.8542 25.0729C8.71268 23.2501 6.77356 19.8935 6.77356 16.2405V14.0417C8.55179 13.8548 10.2922 13.301 11.8542 12.4249C13.4162 13.3016 15.1566 13.8548 16.9349 14.0417V16.2405Z" fill="#EC5F5F"/>
<path d="M11.1842 14.1911C10.1748 14.4259 9.36305 15.2281 9.11693 16.2352C8.84201 17.3614 9.25805 18.5057 10.1607 19.1831V20.8874C10.1607 21.8211 10.9206 22.5809 11.8543 22.5809C12.788 22.5809 13.5478 21.8211 13.5478 20.8874V19.182C14.2512 18.6519 14.6768 17.8175 14.6768 16.9358C14.6768 16.0698 14.2879 15.2637 13.6082 14.7246C12.9285 14.1854 12.0456 13.9901 11.1842 14.1911ZM12.9065 15.6086C13.3141 15.9326 13.5478 16.4164 13.5478 16.9358C13.5478 17.5387 13.2306 18.0834 12.6993 18.3928L12.4188 18.5559V20.8874C12.4188 21.199 12.1659 21.4519 11.8543 21.4519C11.5427 21.4519 11.2897 21.199 11.2897 20.8874V18.5559L11.0092 18.3928C10.3402 18.0038 10.0286 17.2621 10.2143 16.5033C10.3583 15.9151 10.8506 15.4279 11.4405 15.2908C11.581 15.258 11.7205 15.2422 11.8577 15.2422C12.2398 15.2422 12.6017 15.367 12.9065 15.6086Z" fill="#37495E"/>
<path d="M21.4507 6.77394V2.25781H7.90234V6.77394H21.4507ZM9.03138 3.38684H20.3217V5.64491H9.03138V3.38684Z" fill="#EC5F5F"/>
<path d="M2.25781 32.7417H9.03201V28.2256H2.25781V32.7417ZM3.38684 29.3546H7.90297V31.6127H3.38684V29.3546Z" fill="#EC5F5F"/>
<path d="M20.3232 32.1773C20.3232 31.8655 20.576 31.6128 20.8878 31.6128C21.1995 31.6128 21.4523 31.8655 21.4523 32.1773C21.4523 32.4891 21.1995 32.7418 20.8878 32.7418C20.576 32.7418 20.3232 32.4891 20.3232 32.1773Z" fill="#EC5F5F"/>
<path d="M15.8066 32.1773C15.8066 31.8655 16.0594 31.6128 16.3712 31.6128H18.6292C18.941 31.6128 19.1937 31.8655 19.1937 32.1773C19.1937 32.4891 18.941 32.7418 18.6292 32.7418H16.3712C16.0594 32.7418 15.8066 32.4891 15.8066 32.1773Z" fill="#EC5F5F"/>
<path d="M15.8066 29.92C15.8066 29.6082 16.0594 29.3555 16.3712 29.3555H20.8873C21.1991 29.3555 21.4518 29.6082 21.4518 29.92C21.4518 30.2318 21.1991 30.4845 20.8873 30.4845H16.3712C16.0594 30.4845 15.8066 30.2318 15.8066 29.92Z" fill="#EC5F5F"/>
<path d="M15.8066 27.6612C15.8066 27.3494 16.0594 27.0967 16.3712 27.0967H20.8873C21.1991 27.0967 21.4518 27.3494 21.4518 27.6612C21.4518 27.973 21.1991 28.2257 20.8873 28.2257H16.3712C16.0594 28.2257 15.8066 27.973 15.8066 27.6612Z" fill="#EC5F5F"/>
<path d="M24.8379 0V3.3871H34.9992V0H24.8379ZM33.8701 2.25806H25.9669V1.12903H33.8701V2.25806Z" fill="#37495E"/>
<path d="M24.8379 7.90321H34.9992V4.51611H24.8379V7.90321ZM25.9669 5.64515H33.8701V6.77418H25.9669V5.64515Z" fill="#37495E"/>
<path d="M24.8387 12.4194H29.3548V12.9839C29.3548 13.9176 28.595 14.6774 27.6613 14.6774H23.7097V0H5.97597L0 5.97597V35H23.7097V20.3226H27.6613C28.595 20.3226 29.3548 21.0824 29.3548 22.0161V22.5806H24.8387V25.9677H35V22.5806H30.4839V22.0161C30.4839 20.4598 29.2177 19.1935 27.6613 19.1935H23.7097V15.8065H27.6613C29.2177 15.8065 30.4839 14.5402 30.4839 12.9839V12.4194H35V9.03226H24.8387V12.4194ZM33.871 24.8387H25.9677V23.7097H33.871V24.8387ZM5.64516 1.92726V5.64516H1.92726L5.64516 1.92726ZM22.5806 33.871H1.12903V6.77419H6.77419V1.12903H22.5806V33.871ZM25.9677 10.1613H33.871V11.2903H25.9677V10.1613Z" fill="#37495E"/>
<path d="M24.8379 30.4838H34.9992V27.0967H24.8379V30.4838ZM25.9669 28.2257H33.8701V29.3547H25.9669V28.2257Z" fill="#37495E"/>
<path d="M24.8379 34.9999H34.9992V31.6128H24.8379V34.9999ZM25.9669 32.7418H33.8701V33.8709H25.9669V32.7418Z" fill="#37495E"/>
</svg>
