<svg width="35" height="35" viewBox="0 0 35 35" fill="none" xmlns="http://www.w3.org/2000/svg">
<path d="M20 27.3043C20 23.2766 23.2766 20 27.3043 20C30.2973 20 32.8727 21.8115 34 24.3942V34H24.3942C21.8115 32.8727 20 30.2973 20 27.3043Z" fill="#EC5F5F"/>
<path d="M7.10938 21.3281C10.5432 21.3281 13.3645 23.981 13.644 27.3438H18.0469V25.8169L19.4879 25.4778C19.67 24.8434 19.9227 24.2331 20.2431 23.6556L19.4638 22.3967L20.5434 21.3172L11.3422 12.116C10.1987 13.0845 8.72211 13.6719 7.10938 13.6719C3.4907 13.6719 0.546875 10.728 0.546875 7.10938C0.546875 3.4907 3.4907 0.546875 7.10938 0.546875C10.728 0.546875 13.6719 3.4907 13.6719 7.10938C13.6719 8.72211 13.0845 10.1987 12.116 11.3427L21.3166 20.5434L22.3962 19.4638L23.6551 20.2431C24.2326 19.9227 24.8429 19.6695 25.4773 19.4873L25.8169 18.0469H27.3438V13.644C23.981 13.3645 21.3281 10.5432 21.3281 7.10938C21.3281 3.4907 24.272 0.546875 27.8906 0.546875C31.5093 0.546875 34.4531 3.4907 34.4531 7.10938C34.4531 10.5432 31.8002 13.3645 28.4375 13.644V18.0469H29.9644L30.3034 19.4873C30.9455 19.6716 31.5634 19.9287 32.148 20.2552L33.2237 19.6875H34.4531V34.4531H19.6875V33.2238L20.2557 32.1475C19.9292 31.5634 19.6722 30.9455 19.4879 30.3029L18.0469 29.9644V28.4375H13.644C13.3645 31.8002 10.5432 34.4531 7.10938 34.4531C3.4907 34.4531 0.546875 31.5093 0.546875 27.8906C0.546875 24.272 3.4907 21.3281 7.10938 21.3281ZM10.3901 11.4745C10.3846 9.66984 8.91516 8.20312 7.10938 8.20312C5.30359 8.20312 3.83414 9.66984 3.82867 11.4745C4.74359 12.1641 5.87781 12.5781 7.10938 12.5781C8.34094 12.5781 9.47516 12.1641 10.3901 11.4745ZM8.75 5.46875C8.75 4.56422 8.01391 3.82812 7.10938 3.82812C6.20484 3.82812 5.46875 4.56422 5.46875 5.46875C5.46875 6.37328 6.20484 7.10938 7.10938 7.10938C8.01391 7.10938 8.75 6.37328 8.75 5.46875ZM7.10938 1.64062C4.09391 1.64062 1.64062 4.09391 1.64062 7.10938C1.64062 8.40055 2.09289 9.58672 2.8443 10.5235C3.14781 9.17656 4.07312 8.06531 5.3025 7.50477C4.73812 7.00328 4.375 6.28086 4.375 5.46875C4.375 3.96102 5.60164 2.73438 7.10938 2.73438C8.61711 2.73438 9.84375 3.96102 9.84375 5.46875C9.84375 6.28086 9.48063 7.00328 8.9168 7.50477C10.1462 8.06531 11.0715 9.17656 11.375 10.5235C12.1259 9.58672 12.5781 8.40055 12.5781 7.10938C12.5781 4.09391 10.1248 1.64062 7.10938 1.64062ZM29.5312 5.46875C29.5312 4.56422 28.7952 3.82812 27.8906 3.82812C26.9861 3.82812 26.25 4.56422 26.25 5.46875C26.25 6.37328 26.9861 7.10938 27.8906 7.10938C28.7952 7.10938 29.5312 6.37328 29.5312 5.46875ZM27.8906 12.5781C29.1222 12.5781 30.2564 12.1641 31.1713 11.4745C31.1659 9.66984 29.6964 8.20312 27.8906 8.20312C26.0848 8.20312 24.6154 9.66984 24.6099 11.4745C25.5248 12.1641 26.6591 12.5781 27.8906 12.5781ZM33.3594 7.10938C33.3594 4.09391 30.9061 1.64062 27.8906 1.64062C24.8752 1.64062 22.4219 4.09391 22.4219 7.10938C22.4219 8.40055 22.8741 9.58672 23.6255 10.5235C23.9291 9.17656 24.8544 8.06531 26.0837 7.50477C25.5194 7.00328 25.1562 6.28086 25.1562 5.46875C25.1562 3.96102 26.3829 2.73438 27.8906 2.73438C29.3984 2.73438 30.625 3.96102 30.625 5.46875C30.625 6.28086 30.2619 7.00328 29.698 7.50477C30.9274 8.06531 31.8527 9.17656 32.1562 10.5235C32.9071 9.58672 33.3594 8.40055 33.3594 7.10938ZM19.1406 29.0981L20.3831 29.3907L20.463 29.7161C20.6473 30.4686 20.9453 31.1866 21.3484 31.8511L21.5091 32.1158L20.8529 33.3588H33.3594V20.8529L32.1163 21.5091L31.8516 21.3484C31.1877 20.9453 30.4691 20.6478 29.7166 20.463L29.3913 20.3831L29.0981 19.1406H26.6831L26.3905 20.3831L26.0652 20.463C25.3127 20.6473 24.5946 20.9453 23.9302 21.3484L23.6436 21.5223L22.5575 20.8502L20.8496 22.558L21.5217 23.6441L21.3478 23.9307C20.9453 24.5941 20.6473 25.3127 20.4624 26.0657L20.3826 26.3911L19.1406 26.6831V29.0981ZM10.3901 32.2558C10.3846 30.4511 8.91516 28.9844 7.10938 28.9844C5.30359 28.9844 3.83414 30.4511 3.82867 32.2558C4.74359 32.9454 5.87781 33.3594 7.10938 33.3594C8.34094 33.3594 9.47516 32.9454 10.3901 32.2558ZM8.75 26.25C8.75 25.3455 8.01391 24.6094 7.10938 24.6094C6.20484 24.6094 5.46875 25.3455 5.46875 26.25C5.46875 27.1545 6.20484 27.8906 7.10938 27.8906C8.01391 27.8906 8.75 27.1545 8.75 26.25ZM2.8443 31.3048C3.14781 29.9578 4.07312 28.8466 5.3025 28.286C4.73812 27.7845 4.375 27.0621 4.375 26.25C4.375 24.7423 5.60164 23.5156 7.10938 23.5156C8.61711 23.5156 9.84375 24.7423 9.84375 26.25C9.84375 27.0621 9.48063 27.7845 8.9168 28.286C10.1462 28.8466 11.0715 29.9578 11.375 31.3048C12.1259 30.368 12.5781 29.1818 12.5781 27.8906C12.5781 24.8752 10.1248 22.4219 7.10938 22.4219C4.09391 22.4219 1.64062 24.8752 1.64062 27.8906C1.64062 29.1818 2.09289 30.368 2.8443 31.3048Z" fill="#37495E"/>
<path d="M30.625 30.625H29.5312V31.7188H30.625V30.625Z" fill="white"/>
<path d="M28.4375 30.625H27.3438V31.7188H28.4375V30.625Z" fill="white"/>
<path d="M26.25 30.625H25.1562V31.7188H26.25V30.625Z" fill="white"/>
<path d="M30.625 28.4375H25.1562V29.5312H30.625V28.4375Z" fill="white"/>
<path d="M30.625 26.25H25.1562V27.3438H30.625V26.25Z" fill="white"/>
<path d="M30.625 24.0625H25.1562V25.1562H30.625V24.0625Z" fill="white"/>
</svg>
