<svg width="35" height="35" viewBox="0 0 35 35" fill="none" xmlns="http://www.w3.org/2000/svg">
<g clip-path="url(#clip0)">
<path d="M0 0V27.0968H8.46774V25.9677H1.12903V5.64516H33.871V25.9677H25.9677V27.0968H35V0H0ZM1.12903 4.51613V1.12903H33.871V4.51613H1.12903Z" fill="#37495E"/>
<path d="M22.0165 35.0002H12.9843V31.0486H11.9964C9.73944 31.0486 7.90364 29.2128 7.90364 26.9559V25.3013L6.36251 24.993C5.62017 24.8457 5.08105 24.188 5.08105 23.4305C5.08105 23.1414 5.15952 22.858 5.30799 22.6108L7.33912 19.2254V16.9357C7.33912 11.4368 11.8107 6.87941 17.3062 6.77611C17.3677 6.77498 17.4304 6.77441 17.4925 6.77441C20.1 6.77441 22.5805 7.8024 24.4953 9.68224C26.5078 11.6569 27.6617 14.3926 27.6617 17.1869V21.4518C27.6617 25.3058 25.4584 28.8363 22.0165 30.5468V35.0002Z" fill="#EC5F5F"/>
<path d="M3.38684 2.2583H2.25781V3.38733H3.38684V2.2583Z" fill="#37495E"/>
<path d="M5.64466 2.2583H4.51562V3.38733H5.64466V2.2583Z" fill="#37495E"/>
<path d="M7.90345 2.2583H6.77441V3.38733H7.90345V2.2583Z" fill="#37495E"/>
<path d="M19.7578 10.7261H15.2417C12.7516 10.7261 10.7256 12.7521 10.7256 15.2422C10.7256 17.7323 12.7516 19.7583 15.2417 19.7583H19.7578C22.2479 19.7583 24.274 17.7323 24.274 15.2422C24.274 12.7521 22.2479 10.7261 19.7578 10.7261ZM19.7578 18.6293H15.2417C13.3737 18.6293 11.8546 17.1102 11.8546 15.2422C11.8546 13.3742 13.3737 11.8551 15.2417 11.8551H19.7578C21.6258 11.8551 23.1449 13.3742 23.1449 15.2422C23.1449 17.1102 21.6258 18.6293 19.7578 18.6293Z" fill="white"/>
<path d="M14.7904 12.645L12.8428 15.2418L14.7904 17.8386L15.6936 17.1611L14.2541 15.2418L15.6936 13.3224L14.7904 12.645Z" fill="white"/>
<path d="M19.3066 13.3224L20.7462 15.2418L19.3066 17.1611L20.2099 17.8386L22.1574 15.2418L20.2099 12.645L19.3066 13.3224Z" fill="white"/>
<path d="M16.8749 17.7526L19.1328 13.2368L18.123 12.7319L15.8651 17.2477L16.8749 17.7526Z" fill="white"/>
<path d="M18.0646 20.8872H16.9355V22.0162H18.0646V20.8872Z" fill="white"/>
<path d="M20.3224 20.8872H19.1934V22.0162H20.3224V20.8872Z" fill="white"/>
<path d="M15.8058 20.8872H14.6768V22.0162H15.8058V20.8872Z" fill="white"/>
</g>
<defs>
<clipPath id="clip0">
<rect width="35" height="35" fill="white"/>
</clipPath>
</defs>
</svg>
