<svg width="35" height="35" viewBox="0 0 35 35" fill="none" xmlns="http://www.w3.org/2000/svg">
<g clip-path="url(#clip0)">
<path d="M31 23H2V1H31V23Z" fill="#EC5F5F"/>
<path d="M20.8569 18.0911L20.21 17.1664L25.1941 13.6771L20.21 10.1879L20.8569 9.26318L27.1631 13.6771L20.8569 18.0911Z" fill="white"/>
<path d="M12.3062 18.0911L6 13.6771L12.3062 9.26318L12.9531 10.1879L7.96903 13.6771L12.9531 17.1664L12.3062 18.0911Z" fill="white"/>
<path d="M14.857 20.6287L19.377 7.08154L18.3065 6.72438L13.7865 20.2715L14.857 20.6287Z" fill="white"/>
<path d="M32.1772 7.90332H31.6127V9.03235H32.1772C33.1109 9.03235 33.8707 9.79219 33.8707 10.7259V27.0969H3.38684V24.8388H2.25781V28.7904C2.25781 30.3468 3.52402 31.613 5.08039 31.613H10.7256V33.8711H8.46749V35.0001H10.7256H26.532H28.7901V33.8711H26.532V31.613H32.1772C33.7335 31.613 34.9997 30.3468 34.9997 28.7904V10.7259C34.9997 9.16953 33.7335 7.90332 32.1772 7.90332ZM25.403 33.8711H11.8546V31.613H25.403V33.8711ZM32.1772 30.484H26.532H10.7256H5.08039C4.14668 30.484 3.38684 29.7241 3.38684 28.7904V28.2259H33.8707V28.7904C33.8707 29.7241 33.1109 30.484 32.1772 30.484Z" fill="#37495E"/>
<path d="M4 2H3V3H4V2Z" fill="white"/>
<path d="M6 2H5V3H6V2Z" fill="white"/>
<path d="M8 2H7V3H8V2Z" fill="white"/>
<path d="M32 4H2V5H32V4Z" fill="white"/>
</g>
<defs>
<clipPath id="clip0">
<rect width="35" height="35" fill="white"/>
</clipPath>
</defs>
</svg>
