<svg width="35" height="35" viewBox="0 0 35 35" fill="none" xmlns="http://www.w3.org/2000/svg">
<path d="M34 8.2V5.8H32.6428C32.5294 5.3608 32.3569 4.9465 32.1316 4.5655L33.0913 3.6058L31.3942 1.9087L30.4345 2.8684C30.0535 2.6434 29.6392 2.4706 29.2 2.3572V1H26.8V2.3572C26.3608 2.4706 25.9465 2.6431 25.5655 2.8684L24.6058 1.9087L22.9087 3.6058L23.8684 4.5655C23.6434 4.9465 23.4706 5.3608 23.3572 5.8H22V8.2H23.3572C23.4706 8.6392 23.6431 9.0535 23.8684 9.4345L22.9087 10.3942L24.6058 12.0913L25.5652 11.1319C25.9462 11.3569 26.3605 11.5297 26.7997 11.6431V13H29.1997V11.6428C29.6389 11.5294 30.0532 11.3569 30.4342 11.1316L31.3936 12.091L33.0907 10.3939L32.131 9.4342C32.356 9.0532 32.5288 8.6389 32.6422 8.1997H34V8.2Z" fill="#EC5F5F"/>
<path d="M9.5 22C9.5 24.2091 7.20914 27 5 27C2.79086 27 1 24.2091 1 22C1 19.7909 2.79086 18 5 18C7.20914 18 9.5 19.7909 9.5 22Z" fill="#EC5F5F"/>
<path d="M35 8.33452V5.21444L33.5181 4.80911C33.4696 4.67984 33.416 4.55113 33.3567 4.42298L34.1188 3.08677L31.9127 0.88121L30.5776 1.64387C30.45 1.58516 30.3207 1.53097 30.1909 1.48242L29.7856 0H26.666L26.2607 1.48185C26.1309 1.5304 26.0016 1.5846 25.874 1.64331L24.539 0.880645L22.3328 3.08621L23.0949 4.42242C23.0362 4.55056 22.982 4.67927 22.9335 4.80855L21.4516 5.21387V5.64516H13.5484V0H0V11.2903H2.25806V17.7947C0.897581 18.7069 0 20.2582 0 22.0161V22.1251C0 23.2744 0.395161 24.4012 1.11323 25.2994L2.25806 26.7304V27.6613C2.25806 29.2177 3.52427 30.4839 5.08065 30.4839C6.44339 30.4839 7.58371 29.5123 7.84621 28.2258H11.6962L10.8494 31.6129H9.03226C8.09855 31.6129 7.33871 32.3727 7.33871 33.3064V35H27.6613V33.3064C27.6613 32.3727 26.9015 31.6129 25.9677 31.6129H24.1506L23.3038 28.2258H29.9194C31.2821 28.2258 32.4224 27.2543 32.6849 25.9677H33.3064C34.2402 25.9677 35 25.2079 35 24.2742V19.7581C35 18.8244 34.2402 18.0645 33.3064 18.0645H32.7419V11.8385L34.1188 10.4616L33.3567 9.1254C33.4154 8.99726 33.4696 8.86855 33.5181 8.73927L35 8.33452ZM29.3548 17.2663L28.2941 16.205C28.0401 15.9521 27.689 15.8065 27.3305 15.8065C26.5791 15.8065 25.9677 16.4178 25.9677 17.1692V18.0645H25.4032C24.4695 18.0645 23.7097 18.8244 23.7097 19.7581V22.5806H10.1398C10.1534 22.4294 10.1613 22.2775 10.1613 22.1251V22.0161C10.1613 19.4052 8.18153 17.2505 5.64516 16.9688V11.2903H13.5484V9.03226H23.056C23.0695 9.06331 23.0808 9.09436 23.0949 9.1254L22.3328 10.4616L24.539 12.6672L25.874 11.9045C26.0016 11.9632 26.1309 12.0174 26.2607 12.066L26.666 13.5484H29.3548V17.2663ZM12.4194 9.6171L8.83355 7.00903C8.90355 6.93452 8.97016 6.85661 9.03226 6.77419L12.4194 2.25806V9.6171ZM8.12903 6.09677C7.81121 6.52129 7.30427 6.77419 6.77419 6.77419C6.24411 6.77419 5.73718 6.52129 5.41935 6.09734L1.69298 1.12903H11.8548L8.12903 6.09677ZM4.51613 6.77476C4.57823 6.85718 4.64484 6.93508 4.71484 7.0096L1.12903 9.6171V2.25806L4.51613 6.77476ZM5.70387 7.68645C6.04032 7.82476 6.40331 7.90323 6.77419 7.90323C7.14508 7.90323 7.5075 7.82476 7.84452 7.68645L11.248 10.1613H2.3004L5.70387 7.68645ZM21.4516 6.77419V7.90323H13.5484V6.77419H21.4516ZM3.3871 11.2903H4.51613V16.9688C4.12435 17.0123 3.74726 17.1043 3.3871 17.2319V11.2903ZM1.995 24.5937C1.43669 23.896 1.12903 23.0187 1.12903 22.1251V22.0161C1.12903 19.8377 2.90161 18.0645 5.08065 18.0645C7.25968 18.0645 9.03226 19.8377 9.03226 22.0161V22.1251C9.03226 23.0187 8.7246 23.896 8.16629 24.5937L7.06774 25.9677H5.64516V23.1452H4.51613V25.9677H3.09355L1.995 24.5937ZM5.08065 29.3548C4.14694 29.3548 3.3871 28.595 3.3871 27.6613V27.0968H6.77419V27.6613C6.77419 28.595 6.01435 29.3548 5.08065 29.3548ZM26.5323 33.3064V33.871H8.46774V33.3064C8.46774 32.9948 8.72121 32.7419 9.03226 32.7419H25.9677C26.2788 32.7419 26.5323 32.9948 26.5323 33.3064ZM22.9865 31.6129H12.0135L12.8602 28.2258H22.1398L22.9865 31.6129ZM29.9194 27.0968H7.90323V26.7304L9.04806 25.2999C9.42855 24.824 9.71532 24.2832 9.90331 23.7102H23.7097V24.2748C23.7097 25.2085 24.4695 25.9683 25.4032 25.9683H31.509C31.2753 26.6231 30.6544 27.0968 29.9194 27.0968ZM33.871 19.7581V24.2742C33.871 24.5858 33.6175 24.8387 33.3064 24.8387H25.4032C25.0922 24.8387 24.8387 24.5858 24.8387 24.2742V19.7581C24.8387 19.4465 25.0922 19.1935 25.4032 19.1935H27.0968V17.1692C27.0968 16.979 27.3604 16.8694 27.4959 17.0038L29.6856 19.1935H33.3064C33.6175 19.1935 33.871 19.4465 33.871 19.7581ZM30.4839 18.0645V11.944C30.5149 11.9305 30.5465 11.9192 30.5776 11.9051L31.6129 12.4961V18.0645H30.4839ZM32.633 7.81121L32.5415 8.10702C32.4614 8.36613 32.353 8.62694 32.2186 8.88097L32.0741 9.15476L32.7115 10.2719L31.7235 11.2593L30.6064 10.6214L30.332 10.767C30.0808 10.9002 29.8206 11.0092 29.5592 11.0899L29.2628 11.1808L28.9241 12.4194H27.5275L27.1888 11.1814L26.8924 11.0905C26.631 11.0092 26.3708 10.9008 26.1196 10.7676L25.8452 10.6219L24.7281 11.2598L23.7402 10.2725L24.3775 9.15532L24.233 8.88153C24.0986 8.6275 23.9902 8.36669 23.9101 8.10758L23.8186 7.81177L22.5806 7.47194V6.07589L23.8186 5.73661L23.9101 5.44081C23.9902 5.18169 24.0986 4.92089 24.233 4.66685L24.3775 4.39306L23.7402 3.27589L24.7281 2.28855L25.8452 2.92645L26.1196 2.78081C26.3708 2.64758 26.631 2.53863 26.8924 2.4579L27.1888 2.36702L27.5275 1.12903H28.9241L29.2628 2.36702L29.5592 2.4579C29.8206 2.53919 30.0808 2.64758 30.332 2.78081L30.6064 2.92645L31.7235 2.28855L32.7115 3.27589L32.0741 4.39306L32.2186 4.66685C32.353 4.92089 32.4614 5.18169 32.5415 5.44081L32.633 5.73661L33.871 6.07645V7.4725L32.633 7.81121Z" fill="#37495E"/>
<path d="M28 4C26.3455 4 25 5.3455 25 7C25 8.6545 26.3455 10 28 10C29.6545 10 31 8.6545 31 7C31 5.3455 29.6545 4 28 4ZM28 9C26.897 9 26 8.103 26 7C26 5.897 26.897 5 28 5C29.103 5 30 5.897 30 7C30 8.103 29.103 9 28 9Z" fill="white"/>
<path d="M5.08027 23.7094C4.14656 23.7094 3.38672 22.9495 3.38672 22.0158C3.38672 21.0821 4.14656 20.3223 5.08027 20.3223C6.01398 20.3223 6.77382 21.0821 6.77382 22.0158C6.77382 22.9495 6.01398 23.7094 5.08027 23.7094Z" fill="white"/>
</svg>
