<svg width="35" height="35" viewBox="0 0 35 35" fill="none" xmlns="http://www.w3.org/2000/svg">
<g clip-path="url(#clip0)">
<path d="M30.4641 9.83218C30.4692 9.75371 30.4839 9.67581 30.4839 9.59677C30.4839 7.54024 28.9055 5.84613 26.8964 5.66153C26.1275 2.3546 23.1965 0 19.7581 0C16.7752 0 14.096 1.81661 12.972 4.55339C12.7908 4.53137 12.6068 4.51613 12.4194 4.51613C10.5062 4.51613 8.87137 5.71347 8.21427 7.39685C7.92411 7.36242 7.63226 7.33871 7.33871 7.33871C3.29226 7.33871 0 10.631 0 14.6774C0 18.0273 2.26258 20.9498 5.50234 21.7847L5.78403 20.6906C3.04331 19.9844 1.12903 17.5119 1.12903 14.6774C1.12903 11.2536 3.91492 8.46774 7.33871 8.46774C7.53911 8.46774 7.73895 8.48016 7.93766 8.49879C7.91677 8.67435 7.90323 8.85161 7.90323 9.03226C7.90323 11.5223 9.92927 13.5484 12.4194 13.5484V12.4194C10.5514 12.4194 9.03226 10.9002 9.03226 9.03226C9.03226 7.16427 10.5514 5.64516 12.4194 5.64516C14.2873 5.64516 15.8065 7.16427 15.8065 9.03226H16.9355C16.9355 7.12702 15.7472 5.49669 14.0745 4.83452C15.0596 2.60073 17.2872 1.12903 19.7581 1.12903C22.8002 1.12903 25.3722 3.30694 25.8746 6.3079L25.9565 6.79508L26.5323 6.77419C28.0886 6.77419 29.3548 8.0404 29.3548 9.59677C29.3548 9.60637 29.3526 9.6154 29.3526 9.625C29.1669 9.60863 28.98 9.59677 28.7903 9.59677C27.1549 9.59677 25.611 10.2273 24.443 11.3727L25.2333 12.1789C26.189 11.2418 27.4519 10.7258 28.7903 10.7258C31.5915 10.7258 33.871 13.0048 33.871 15.8065C33.871 18.4292 31.9059 20.6026 29.2995 20.8617L29.4107 21.9851C32.5974 21.669 35 19.0123 35 15.8065C35 12.963 33.0767 10.5655 30.4641 9.83218Z" fill="#37495E"/>
<path d="M29.9198 35.0002H5.08105V15.8066H29.9198V35.0002Z" fill="#EC5F5F"/>
<path d="M7.33899 16.9355H6.20996V18.0646H7.33899V16.9355Z" fill="white"/>
<path d="M9.59681 16.9355H8.46777V18.0646H9.59681V16.9355Z" fill="white"/>
<path d="M11.8556 16.9355H10.7266V18.0646H11.8556V16.9355Z" fill="white"/>
<path d="M29.9198 19.1938H5.08105V20.3229H29.9198V19.1938Z" fill="white"/>
<path d="M18.6292 32.7419H7.33887V22.5806H18.6292V32.7419ZM8.4679 31.6128H17.5002V23.7096H8.4679V31.6128Z" fill="white"/>
<path d="M27.662 22.5806H19.7588V23.7096H27.662V22.5806Z" fill="white"/>
<path d="M27.6618 24.8389H22.0166V25.9679H27.6618V24.8389Z" fill="white"/>
<path d="M20.8878 24.8389H19.7588V25.9679H20.8878V24.8389Z" fill="white"/>
<path d="M27.662 27.0967H19.7588V28.2257H27.662V27.0967Z" fill="white"/>
<path d="M27.662 29.355H19.7588V30.484H27.662V29.355Z" fill="white"/>
<path d="M27.6613 31.6128H26.5322V32.7418H27.6613V31.6128Z" fill="white"/>
<path d="M25.404 31.6128H19.7588V32.7418H25.404V31.6128Z" fill="white"/>
</g>
<defs>
<clipPath id="clip0">
<rect width="35" height="35" fill="white"/>
</clipPath>
</defs>
</svg>
