<svg width="21" height="21" viewBox="0 0 21 21" fill="none" xmlns="http://www.w3.org/2000/svg">
<path d="M10.1616 11.5162H2.70996V5.41943H10.1616V11.5162Z" fill="#EC5F5F"/>
<path d="M14.5647 19.645C12.5104 19.645 10.8389 17.9734 10.8389 15.9192C10.8389 13.8649 12.5104 12.1934 14.5647 12.1934C16.6189 12.1934 18.2905 13.8649 18.2905 15.9192C18.2905 17.9734 16.6189 19.645 14.5647 19.645Z" fill="#EC5F5F"/>
<path d="M21 0H0V15.5806H1.35484V21H19.6452V15.5806H21V0ZM20.3226 0.677419V2.70968H0.677419V0.677419H20.3226ZM18.9677 20.3226H2.03226V4.74194H18.9677V20.3226ZM19.6452 14.9032V4.06452H1.35484V14.9032H0.677419V3.3871H20.3226V14.9032H19.6452Z" fill="#37495E"/>
<path d="M2.03191 1.35498H1.35449V2.0324H2.03191V1.35498Z" fill="#37495E"/>
<path d="M3.38738 1.35498H2.70996V2.0324H3.38738V1.35498Z" fill="#37495E"/>
<path d="M4.74187 1.35498H4.06445V2.0324H4.74187V1.35498Z" fill="#37495E"/>
<path d="M18.2905 5.41943H10.8389V6.09685H18.2905V5.41943Z" fill="#37495E"/>
<path d="M18.2901 6.77393H12.1934V7.45134H18.2901V6.77393Z" fill="#37495E"/>
<path d="M11.5163 6.77393H10.8389V7.45134H11.5163V6.77393Z" fill="#37495E"/>
<path d="M18.2905 8.12891H10.8389V8.80633H18.2905V8.12891Z" fill="#37495E"/>
<path d="M18.2905 9.48389H10.8389V10.1613H18.2905V9.48389Z" fill="#37495E"/>
<path d="M18.2907 10.8389H17.6133V11.5163H18.2907V10.8389Z" fill="#37495E"/>
<path d="M16.9356 10.8389H10.8389V11.5163H16.9356V10.8389Z" fill="#37495E"/>
<path d="M10.1616 12.1934H2.70996V12.8708H10.1616V12.1934Z" fill="#37495E"/>
<path d="M10.1612 13.5483H4.06445V14.2258H10.1612V13.5483Z" fill="#37495E"/>
<path d="M3.38738 13.5483H2.70996V14.2258H3.38738V13.5483Z" fill="#37495E"/>
<path d="M10.1616 14.9033H2.70996V15.5807H10.1616V14.9033Z" fill="#37495E"/>
<path d="M10.1616 16.2583H2.70996V16.9357H10.1616V16.2583Z" fill="#37495E"/>
<path d="M10.1616 17.6128H2.70996V18.2902H10.1616V17.6128Z" fill="#37495E"/>
<path d="M10.1608 18.9678H9.4834V19.6452H10.1608V18.9678Z" fill="#37495E"/>
<path d="M8.80673 18.9678H2.70996V19.6452H8.80673V18.9678Z" fill="#37495E"/>
</svg>
