<svg width="20" height="20" viewBox="0 0 20 20" fill="none" xmlns="http://www.w3.org/2000/svg">
<path d="M11.6675 4.57408C11.6675 7.10023 9.80193 9.14799 7.50073 9.14799C5.19954 9.14799 3.33398 7.10023 3.33398 4.57408C3.33398 2.04792 5.19954 0 7.50073 0C9.80193 0 11.6675 2.04792 11.6675 4.57408Z" fill="#AAAAAA"/>
<path d="M11.0417 10.9775H3.95828C1.77582 10.9775 0 12.927 0 15.3228V18.5247C0 18.9034 0.279999 19.2108 0.625 19.2108H14.375C14.72 19.2108 15 18.9034 15 18.5247V15.3228C15 12.927 13.2242 10.9775 11.0417 10.9775Z" fill="#AAAAAA"/>
<path d="M19.8001 7.73009L16.8834 4.75703C16.7659 4.6371 16.6126 4.57495 16.4585 4.57495C16.0451 4.57495 15.8326 4.96105 15.8326 5.26022V7.31853H12.4993C12.0385 7.31853 11.666 7.72824 11.666 8.23327C11.666 8.7383 12.0385 9.14802 12.4993 9.14802H15.8326V11.2063C15.8326 11.5869 16.1142 11.8924 16.4576 11.8924C16.6126 11.8924 16.7652 11.8295 16.8834 11.7095L19.8001 8.73646C19.9268 8.60648 19.9993 8.42356 19.9993 8.23327C19.9993 8.04299 19.9268 7.86007 19.8001 7.73009Z" fill="#AAAAAA"/>
</svg>
