<svg width="20" height="20" viewBox="0 0 20 20" fill="none" xmlns="http://www.w3.org/2000/svg">
<path d="M8.9269 1C4.55612 1 1 4.55612 1 8.9269C1 13.2979 4.55612 16.8538 8.9269 16.8538C13.2979 16.8538 16.8538 13.2979 16.8538 8.9269C16.8538 4.55612 13.2979 1 8.9269 1ZM8.9269 15.3904C5.36297 15.3904 2.46343 12.4909 2.46343 8.92693C2.46343 5.363 5.36297 2.46343 8.9269 2.46343C12.4908 2.46343 15.3904 5.36297 15.3904 8.9269C15.3904 12.4908 12.4908 15.3904 8.9269 15.3904Z" fill="#AAAAAA" stroke="#AAAAAA"/>
<path d="M18.786 17.7511L14.5909 13.5559C14.305 13.2701 13.8421 13.2701 13.5562 13.5559C13.2703 13.8416 13.2703 14.305 13.5562 14.5906L17.7514 18.7858C17.8943 18.9287 18.0814 19.0002 18.2687 19.0002C18.4558 19.0002 18.6431 18.9287 18.786 18.7858C19.0719 18.5002 19.0719 18.0367 18.786 17.7511Z" fill="#AAAAAA" stroke="#AAAAAA"/>
</svg>
