<svg width="20" height="20" viewBox="0 0 20 20" fill="none" xmlns="http://www.w3.org/2000/svg">
<path d="M2.34375 20C3.63632 20 4.72656 18.9488 4.72656 17.6562C4.72656 16.3637 3.63632 15.2734 2.34375 15.2734C1.05118 15.2734 0 16.3637 0 17.6562C0 18.9488 1.05118 20 2.34375 20Z" fill="#AAAAAA"/>
<path d="M0.585938 11.7188H1.75781C5.31738 11.7188 8.28125 14.6825 8.28125 18.2422V19.4141C8.28125 19.7377 8.54355 20 8.86719 20H10.0391C10.3627 20 10.625 19.7377 10.625 19.4141V18.2422C10.625 13.3881 6.61194 9.375 1.75781 9.375H0.585938C0.262299 9.375 0 9.6373 0 9.96094V11.1328C0 11.4565 0.262299 11.7188 0.585938 11.7188Z" fill="#AAAAAA"/>
<path d="M0.585938 7.03125H1.75781C7.90634 7.03125 12.9688 12.0937 12.9688 18.2422V19.4141C12.9688 19.7377 13.231 20 13.5547 20H14.7266C15.0502 20 15.3125 19.7377 15.3125 19.4141V18.2422C15.3125 10.7993 9.20074 4.6875 1.75781 4.6875H0.585938C0.262299 4.6875 0 4.9498 0 5.27344V6.44531C0 6.76895 0.262299 7.03125 0.585938 7.03125Z" fill="#AAAAAA"/>
<path d="M1.75781 0H0.585938C0.262299 0 0 0.262299 0 0.585938V1.75781C0 2.08145 0.262299 2.34375 0.585938 2.34375H1.75781C10.4951 2.34375 17.6562 9.50485 17.6562 18.2422V19.4141C17.6562 19.7377 17.9185 20 18.2422 20H19.4141C19.7377 20 20 19.7377 20 19.4141V18.2422C20 8.21045 11.7896 0 1.75781 0Z" fill="#AAAAAA"/>
</svg>
