<svg width="78" height="78" viewBox="0 0 78 78" fill="none" xmlns="http://www.w3.org/2000/svg">
<circle cx="39" cy="39" r="39" fill="#FCE3E3"/>
<path d="M16.2059 48.6418V51.4838H11.3442V48.6418H9.72363V61.9676C9.72363 64.191 11.5411 65.9998 13.775 65.9998C16.009 65.9998 17.8264 64.191 17.8264 61.9676V48.6418H16.2059ZM13.775 64.3869C12.4348 64.3869 11.3442 63.3015 11.3442 61.9676V53.0967H16.2059V61.9676C16.2059 63.3015 15.1152 64.3869 13.775 64.3869Z" fill="#37495E"/>
<path d="M23.5386 38.6208L23.2436 38.3273C22.2519 42.6224 18.3868 45.8385 13.7747 45.8385C8.41312 45.8385 4.05139 41.4974 4.05139 36.1612C4.05139 30.8249 8.41312 26.4838 13.7747 26.4838C18.3868 26.4838 22.2519 29.6999 23.2436 33.995L23.5386 33.7015C24.472 32.7725 25.5286 31.9967 26.6671 31.3781C24.711 26.1733 19.6784 22.4515 13.7747 22.4515C6.17918 22.4515 0 28.6015 0 36.1612C0 43.7208 6.17918 49.8708 13.7747 49.8708C19.6784 49.8708 24.711 46.149 26.6671 40.9442C25.5294 40.3265 24.472 39.5499 23.5386 38.6208Z" fill="#37495E" fill-opacity="0.1"/>
<path d="M48.8547 54.9458L46.9968 56.795V56.3224H37.2734V65.9998H46.9968V59.0756L50.0005 56.0861L48.8547 54.9458ZM45.3762 64.3869H38.894V57.9353H45.3762V58.4079L42.1351 61.6337L40.2771 59.7845L39.1314 60.9248L42.1351 63.9143L45.3762 60.6885V64.3869Z" fill="#EC5F5F"/>
<path d="M46.9968 47.7853L50.0005 44.7958L48.8547 43.6555L46.9968 45.5047V45.0321H37.2734V54.7095H46.9968V47.7853ZM38.894 53.0966V46.645H45.3762V47.1176L42.1351 50.3434L40.2771 48.4942L39.1314 49.6345L42.1351 52.624L45.3762 49.3982V53.0966H38.894Z" fill="#EC5F5F"/>
<path d="M24.3086 57.1289H35.6525V64.3869H24.3086V57.1289Z" fill="#FFD9D9"/>
<path d="M24.3086 45.8386H35.6525V53.0967H24.3086V45.8386Z" fill="#FFD9D9"/>
<path d="M24.3086 57.1288C24.3086 56.6834 24.6697 56.3224 25.115 56.3224H34.846C35.2914 56.3224 35.6525 56.6834 35.6525 57.1288C35.6525 57.5742 35.2914 57.9353 34.846 57.9353H25.115C24.6697 57.9353 24.3086 57.5742 24.3086 57.1288Z" fill="#EC5F5F"/>
<path d="M24.3086 60.3547C24.3086 59.9093 24.6697 59.5482 25.115 59.5482H34.846C35.2914 59.5482 35.6525 59.9093 35.6525 60.3547C35.6525 60.8001 35.2914 61.1611 34.846 61.1611H25.115C24.6697 61.1611 24.3086 60.8001 24.3086 60.3547Z" fill="#EC5F5F"/>
<path d="M24.3086 63.5805C24.3086 63.1351 24.6697 62.774 25.115 62.774H31.6049C32.0503 62.774 32.4114 63.1351 32.4114 63.5805C32.4114 64.0259 32.0503 64.3869 31.6049 64.3869H25.115C24.6697 64.3869 24.3086 64.0259 24.3086 63.5805Z" fill="#EC5F5F"/>
<path d="M34.0312 63.5805C34.0312 63.1351 34.3961 62.774 34.8415 62.774C35.2869 62.774 35.6518 63.1351 35.6518 63.5805C35.6518 64.0259 35.2869 64.3869 34.8415 64.3869C34.3961 64.3869 34.0312 64.0259 34.0312 63.5805Z" fill="#EC5F5F"/>
<path d="M24.3086 45.8387C24.3086 45.3933 24.6697 45.0322 25.115 45.0322H34.846C35.2914 45.0322 35.6525 45.3933 35.6525 45.8387C35.6525 46.2841 35.2914 46.6451 34.846 46.6451H25.115C24.6697 46.6451 24.3086 46.2841 24.3086 45.8387Z" fill="#EC5F5F"/>
<path d="M24.3086 49.0645C24.3086 48.6191 24.6697 48.2581 25.115 48.2581H34.846C35.2914 48.2581 35.6525 48.6191 35.6525 49.0645C35.6525 49.5099 35.2914 49.871 34.846 49.871H25.115C24.6697 49.871 24.3086 49.5099 24.3086 49.0645Z" fill="#EC5F5F"/>
<path d="M24.3086 52.2902C24.3086 51.8448 24.6697 51.4838 25.115 51.4838H31.6049C32.0503 51.4838 32.4114 51.8448 32.4114 52.2902C32.4114 52.7356 32.0503 53.0967 31.6049 53.0967H25.115C24.6697 53.0967 24.3086 52.7356 24.3086 52.2902Z" fill="#EC5F5F"/>
<path d="M34.0312 52.2902C34.0312 51.8448 34.3961 51.4838 34.8415 51.4838C35.2869 51.4838 35.6518 51.8448 35.6518 52.2902C35.6518 52.7356 35.2869 53.0967 34.8415 53.0967C34.3961 53.0967 34.0312 52.7356 34.0312 52.2902Z" fill="#EC5F5F"/>
<path d="M44.5654 34.2144L43.4772 33.1314C40.7376 30.4048 37.0954 28.9032 33.2215 28.9032C29.653 28.9032 26.2904 30.1911 23.64 32.5225C23.063 30.958 22.145 29.5854 20.9709 28.4911L28.3282 21.9484L32.4112 26.0113L39.7037 18.7532V23.258H41.3243V16H34.0318V17.6129H38.558L32.4112 23.7306L28.3914 19.729L19.6858 27.4709C17.9923 26.3306 15.9545 25.6774 13.7748 25.6774C7.96675 25.6774 3.24121 30.3806 3.24121 36.1612C3.24121 41.9418 7.96675 46.645 13.7748 46.645C18.254 46.645 22.1337 43.887 23.64 39.7999C26.2904 42.1314 29.653 43.4193 33.2215 43.4193C37.0954 43.4193 40.7376 41.9176 43.4772 39.191L44.5654 38.108C45.088 37.587 45.3757 36.8959 45.3757 36.1612C45.3757 35.4265 45.088 34.7346 44.5654 34.2144ZM38.8934 36.1612C38.8934 39.2733 36.3492 41.8064 33.2215 41.8064C30.0938 41.8064 27.5496 39.2733 27.5496 36.1612C27.5496 33.0491 30.0938 30.5161 33.2215 30.5161C36.3492 30.5161 38.8934 33.0491 38.8934 36.1612ZM11.344 44.6886C10.7784 44.5289 10.2372 44.3152 9.72344 44.0531V41.8064H11.344V44.6886ZM17.8262 44.0652C17.3117 44.3257 16.7704 44.5386 16.2057 44.6959V40.1935H17.8262V44.0652ZM19.4468 43.0112V38.5806H14.5851V44.9951C14.3177 45.0184 14.0479 45.0322 13.7748 45.0322C13.501 45.0322 13.2319 45.0152 12.9645 44.991V40.1935H8.10288V42.9991C6.12499 41.3701 4.86177 38.9096 4.86177 36.1612C4.86177 31.2701 8.86049 27.2903 13.7748 27.2903C15.4724 27.2903 17.0654 27.7637 18.4258 28.5911L15.6142 31.0911C15.0907 30.7306 14.4587 30.5161 13.7748 30.5161C11.9874 30.5161 10.5337 31.9628 10.5337 33.7419C10.5337 35.5209 11.9874 36.9677 13.7748 36.9677C15.5623 36.9677 17.0159 35.5209 17.0159 33.7419C17.0159 33.2282 16.8839 32.7491 16.6683 32.3177L19.7522 29.575C20.9644 30.6677 21.8736 32.0991 22.3395 33.754L21.8776 34.2144C21.355 34.7354 21.0673 35.4265 21.0673 36.1612C21.0673 36.8959 21.355 37.5878 21.8776 38.108L22.3395 38.5677C21.8355 40.3596 20.8113 41.8902 19.4468 43.0112ZM15.3954 33.7419C15.3954 34.6314 14.6686 35.3548 13.7748 35.3548C12.8811 35.3548 12.1543 34.6314 12.1543 33.7419C12.1543 32.8524 12.8811 32.129 13.7748 32.129C14.6686 32.129 15.3954 32.8524 15.3954 33.7419ZM23.0242 36.9677C22.807 36.7515 22.6879 36.4661 22.6879 36.1612C22.6879 35.8564 22.807 35.5709 23.0233 35.3548L24.1115 34.2717C25.0596 33.3282 26.1316 32.5556 27.2878 31.9572C26.4362 33.1451 25.929 34.5935 25.929 36.1612C25.929 37.729 26.4362 39.1773 27.2878 40.3652C26.1316 39.7668 25.0596 38.9943 24.1115 38.0507L23.0242 36.9677ZM43.4197 36.9677L42.3315 38.0507C41.3834 38.9943 40.3114 39.7668 39.1552 40.3652C40.0068 39.1773 40.514 37.729 40.514 36.1612C40.514 34.5935 40.0068 33.1451 39.1552 31.9572C40.3114 32.5556 41.3834 33.3282 42.3315 34.2717L43.4188 35.3548C43.636 35.5709 43.7551 35.8564 43.7551 36.1612C43.7551 36.4661 43.636 36.7515 43.4197 36.9677Z" fill="#37495E"/>
<path d="M33.2213 40.1935C35.4552 40.1935 37.2727 38.3846 37.2727 36.1613C37.2727 33.9379 35.4552 32.129 33.2213 32.129C30.9874 32.129 29.1699 33.9379 29.1699 36.1613C29.1699 38.3846 30.9874 40.1935 33.2213 40.1935ZM33.2213 33.7419C34.5615 33.7419 35.6521 34.8274 35.6521 36.1613C35.6521 37.4951 34.5615 38.5806 33.2213 38.5806C31.8811 38.5806 30.7905 37.4951 30.7905 36.1613C30.7905 34.8274 31.8811 33.7419 33.2213 33.7419Z" fill="#37495E"/>
<path d="M33.2214 36.9678C33.6689 36.9678 34.0317 36.6067 34.0317 36.1613C34.0317 35.7159 33.6689 35.3549 33.2214 35.3549C32.7739 35.3549 32.4111 35.7159 32.4111 36.1613C32.4111 36.6067 32.7739 36.9678 33.2214 36.9678Z" fill="#37495E"/>
</svg>
