<svg width="78" height="78" viewBox="0 0 78 78" fill="none" xmlns="http://www.w3.org/2000/svg">
<circle cx="39" cy="39" r="39" fill="#FCE3E3"/>
<path d="M10.9328 47.0312L10.375 54.8438L11.9375 56.4062L13.5 54.8438L12.9422 47.0312H10.9328Z" fill="#37495E"/>
<path d="M47.875 43.9062H30.6875C29.3953 43.9062 28.3438 44.9578 28.3438 46.25V57.1875C28.3438 58.4797 29.3953 59.5312 30.6875 59.5312H47.875C49.1672 59.5312 50.2188 58.4797 50.2188 57.1875V46.25C50.2188 44.9578 49.1672 43.9062 47.875 43.9062ZM33.8125 52.5C32.9492 52.5 32.25 51.8008 32.25 50.9375C32.25 50.0742 32.9492 49.375 33.8125 49.375C34.6758 49.375 35.375 50.0742 35.375 50.9375C35.375 51.8008 34.6758 52.5 33.8125 52.5ZM39.2812 55.625C38.418 55.625 37.7188 54.9258 37.7188 54.0625C37.7188 53.1992 38.418 52.5 39.2812 52.5C40.1445 52.5 40.8438 53.1992 40.8438 54.0625C40.8438 54.9258 40.1445 55.625 39.2812 55.625ZM44.75 50.9375C43.8867 50.9375 43.1875 50.2383 43.1875 49.375C43.1875 48.5117 43.8867 47.8125 44.75 47.8125C45.6133 47.8125 46.3125 48.5117 46.3125 49.375C46.3125 50.2383 45.6133 50.9375 44.75 50.9375Z" fill="#FF5252" fill-opacity="0.25"/>
<path d="M44.75 47.0312C43.4578 47.0312 42.4062 48.0828 42.4062 49.375C42.4062 49.6719 42.4672 49.9539 42.5688 50.2156L40.4422 52.0383C40.0984 51.8406 39.7055 51.7188 39.2812 51.7188C38.6984 51.7188 38.1711 51.9406 37.7609 52.2937L36.1148 51.3531C36.1383 51.218 36.1562 51.0797 36.1562 50.9375C36.1562 49.6453 35.1047 48.5938 33.8125 48.5938C32.5203 48.5938 31.4688 49.6453 31.4688 50.9375C31.4688 52.2297 32.5203 53.2812 33.8125 53.2812C34.3953 53.2812 34.9227 53.0594 35.3328 52.7063L36.9789 53.6469C36.9555 53.782 36.9375 53.9203 36.9375 54.0625C36.9375 55.3547 37.9891 56.4062 39.2812 56.4062C40.5734 56.4062 41.625 55.3547 41.625 54.0625C41.625 53.7656 41.5641 53.4836 41.4625 53.2219L43.5898 51.3992C43.9328 51.5969 44.3258 51.7188 44.75 51.7188C46.0422 51.7188 47.0938 50.6672 47.0938 49.375C47.0938 48.0828 46.0422 47.0312 44.75 47.0312ZM33.8125 51.7188C33.3813 51.7188 33.0312 51.3688 33.0312 50.9375C33.0312 50.5062 33.3813 50.1562 33.8125 50.1562C34.2438 50.1562 34.5938 50.5062 34.5938 50.9375C34.5938 51.3688 34.2438 51.7188 33.8125 51.7188ZM39.2812 54.8438C38.85 54.8438 38.5 54.4938 38.5 54.0625C38.5 53.6312 38.85 53.2812 39.2812 53.2812C39.7125 53.2812 40.0625 53.6312 40.0625 54.0625C40.0625 54.4938 39.7125 54.8438 39.2812 54.8438ZM44.75 50.1562C44.3188 50.1562 43.9688 49.8063 43.9688 49.375C43.9688 48.9438 44.3188 48.5938 44.75 48.5938C45.1812 48.5938 45.5312 48.9438 45.5312 49.375C45.5312 49.8063 45.1812 50.1562 44.75 50.1562Z" fill="#FF5252"/>
<path d="M11.9375 21.25C12.7992 21.25 13.5 21.9508 13.5 22.8125H15.0625C15.0625 21.3602 14.0633 20.1477 12.7188 19.7984V18.125H11.1562V19.6875H8.8125V22.8125C8.8125 24.5359 10.2141 25.9375 11.9375 25.9375C12.7992 25.9375 13.5 26.6383 13.5 27.5V29.0625H11.9375C11.0758 29.0625 10.375 28.3617 10.375 27.5H8.8125C8.8125 28.9523 9.81172 30.1648 11.1562 30.5141V32.1875H12.7188V30.625H15.0625V27.5C15.0625 25.7766 13.6609 24.375 11.9375 24.375C11.0758 24.375 10.375 23.6742 10.375 22.8125V21.25H11.9375Z" fill="#37495E"/>
<path d="M32.25 29.0625H29.125V38.4375H43.1875V24.375H38.5V25.9375H35.375V27.5H32.25V29.0625ZM30.6875 30.625H32.25V36.875H30.6875V30.625ZM40.0625 25.9375H41.625V36.875H40.0625V25.9375ZM38.5 27.5V36.875H36.9375V27.5H38.5ZM35.375 29.0625V36.875H33.8125V29.0625H35.375Z" fill="#FF5252"/>
<path d="M43.9688 41.5625C45.2609 41.5625 46.3125 40.5109 46.3125 39.2188V23.5938C46.3125 22.3016 45.2609 21.25 43.9688 21.25H21.2961C19.7266 17.4914 16.0375 15 11.9375 15C6.3375 15 1.78125 19.5562 1.78125 25.1562C1.78125 30.7563 6.3375 35.3125 11.9375 35.3125C14.2188 35.3125 16.4125 34.5289 18.1875 33.1359V39.2188C18.1875 40.5109 19.2391 41.5625 20.5312 41.5625H21.3125V44.6875C21.3125 45.5492 20.6117 46.25 19.75 46.25H15.757C16.7734 45.2563 17.4062 43.8734 17.4062 42.3438C17.4062 39.3289 14.9523 36.875 11.9375 36.875C8.92266 36.875 6.46875 39.3289 6.46875 42.3438C6.46875 44.0023 7.21406 45.4883 8.38437 46.4922C4.60391 47.3937 1.78125 50.7914 1.78125 54.8438V63.4375H18.1875V54.1305C18.1875 53.5633 18.5922 53.0781 19.1492 52.9766L21.6484 52.5219C24.6227 51.982 26.7812 49.3953 26.7812 46.3734V41.5625H43.9688ZM11.9375 33.75C7.19922 33.75 3.34375 29.8945 3.34375 25.1562C3.34375 20.418 7.19922 16.5625 11.9375 16.5625C15.2477 16.5625 18.2398 18.4828 19.6617 21.4219C18.7992 21.768 18.1875 22.6094 18.1875 23.5938V31.0258C16.5617 32.7555 14.3039 33.75 11.9375 33.75ZM8.03125 42.3438C8.03125 40.1898 9.78359 38.4375 11.9375 38.4375C14.0914 38.4375 15.8438 40.1898 15.8438 42.3438C15.8438 44.4977 14.0914 46.25 11.9375 46.25C9.78359 46.25 8.03125 44.4977 8.03125 42.3438ZM25.2188 46.3734C25.2188 48.6398 23.6 50.5797 21.3695 50.9852L18.8703 51.4391C17.5695 51.6758 16.625 52.8078 16.625 54.1305V61.875H7.25V51.7188H5.6875V61.875H3.34375V54.8438C3.34375 50.9664 6.49766 47.8125 10.375 47.8125H19.75C21.4734 47.8125 22.875 46.4109 22.875 44.6875V38.0469C22.875 37.4008 23.4008 36.875 24.0469 36.875C24.693 36.875 25.2188 37.4008 25.2188 38.0469V46.3734ZM24.0469 35.3125C22.5391 35.3125 21.3125 36.5391 21.3125 38.0469V40H20.5312C20.1 40 19.75 39.65 19.75 39.2188V23.5938C19.75 23.1625 20.1 22.8125 20.5312 22.8125H43.9688C44.4 22.8125 44.75 23.1625 44.75 23.5938V39.2188C44.75 39.65 44.4 40 43.9688 40H26.7812V38.0469C26.7812 36.5391 25.5547 35.3125 24.0469 35.3125Z" fill="#37495E"/>
<path d="M21.3125 25.1562C21.3125 24.7248 21.6623 24.375 22.0938 24.375C22.5252 24.375 22.875 24.7248 22.875 25.1562C22.875 25.5877 22.5252 25.9375 22.0938 25.9375C21.6623 25.9375 21.3125 25.5877 21.3125 25.1562Z" fill="#FF5252"/>
<path d="M24.4375 25.1562C24.4375 24.7248 24.7873 24.375 25.2188 24.375C25.6502 24.375 26 24.7248 26 25.1562C26 25.5877 25.6502 25.9375 25.2188 25.9375C24.7873 25.9375 24.4375 25.5877 24.4375 25.1562Z" fill="#FF5252"/>
<path d="M27.5625 25.1562C27.5625 24.7248 27.9123 24.375 28.3438 24.375C28.7752 24.375 29.125 24.7248 29.125 25.1562C29.125 25.5877 28.7752 25.9375 28.3438 25.9375C27.9123 25.9375 27.5625 25.5877 27.5625 25.1562Z" fill="#FF5252"/>
<path d="M21.3125 27.5H27.5625V29.0625H21.3125V27.5Z" fill="#FF5252"/>
<path d="M21.3125 30.625H27.5625V32.1875H21.3125V30.625Z" fill="#FF5252"/>
</svg>
