<svg width="81" height="78" viewBox="0 0 81 78" fill="none" xmlns="http://www.w3.org/2000/svg">
<circle cx="42" cy="39" r="39" fill="#FCE3E3"/>
<path d="M10.6666 47.8335C10.6666 48.2936 10.2936 48.6666 9.83351 48.6666C9.37308 48.6666 9 48.2936 9 47.8335C9 47.3731 9.37308 47 9.83351 47C10.2936 47 10.6666 47.3731 10.6666 47.8335Z" fill="#37495E"/>
<path d="M4.99965 19.1668C4.99965 19.6268 4.62657 19.9999 4.16652 19.9999C3.70609 19.9999 3.33301 19.6268 3.33301 19.1668C3.33301 18.7063 3.70609 18.3333 4.16652 18.3333C4.62657 18.3333 4.99965 18.7063 4.99965 19.1668Z" fill="#37495E"/>
<path d="M8.33363 19.1668C8.33363 19.6268 7.96056 19.9999 7.5005 19.9999C7.04007 19.9999 6.66699 19.6268 6.66699 19.1668C6.66699 18.7063 7.04007 18.3333 7.5005 18.3333C7.96056 18.3333 8.33363 18.7063 8.33363 19.1668Z" fill="#37495E"/>
<path d="M11.6666 19.1668C11.6666 19.6268 11.2936 19.9999 10.8331 19.9999C10.3731 19.9999 10 19.6268 10 19.1668C10 18.7063 10.3731 18.3333 10.8331 18.3333C11.2936 18.3333 11.6666 18.7063 11.6666 19.1668Z" fill="#37495E"/>
<path d="M0.833511 37.4998C1.29356 37.4998 1.66664 37.1268 1.66664 36.6667V23.3332H37.5V32.4999C37.5 32.9604 37.8731 33.3334 38.3335 33.3334C38.7936 33.3334 39.1666 32.9604 39.1666 32.4999V17.5002C39.1666 16.1192 38.0474 15 36.6669 15H2.50015C1.11923 15 0 16.1192 0 17.5002V36.6667C0 37.1268 0.373077 37.4998 0.833511 37.4998ZM2.50015 16.6666H36.6669C37.1269 16.6666 37.5 17.0397 37.5 17.5002V21.6666H1.66664V17.5002C1.66664 17.0397 2.03972 16.6666 2.50015 16.6666V16.6666Z" fill="#37495E"/>
<path d="M0.366497 40.6915C0.413036 40.7231 0.46339 40.7483 0.516796 40.7666C0.563717 40.7907 0.614452 40.8074 0.666714 40.8166C0.721645 40.8258 0.77734 40.8315 0.833416 40.8334C1.05391 40.83 1.26524 40.7437 1.42508 40.5915C1.50022 40.5118 1.55973 40.4187 1.59979 40.3165C1.72567 40.0056 1.65701 39.6501 1.42508 39.4082C1.34535 39.3331 1.25189 39.2736 1.15004 39.2331C1.04971 39.1904 0.942135 39.1679 0.833416 39.1667C0.612545 39.1698 0.401592 39.256 0.241756 39.4082C-0.0805855 39.7367 -0.0805855 40.2631 0.241756 40.5915L0.366497 40.6915Z" fill="#37495E"/>
<path d="M2.50015 49.1667H14.1666C14.6271 49.1667 15.0002 48.7936 15.0002 48.3332C15.0002 47.8731 14.6271 47.5 14.1666 47.5H2.50015C2.03972 47.5 1.66664 47.127 1.66664 46.6665V43.3333C1.66664 42.8732 1.29356 42.5001 0.833511 42.5001C0.373077 42.5001 0 42.8732 0 43.3333V46.6665C0 48.0475 1.11923 49.1667 2.50015 49.1667Z" fill="#37495E"/>
<path d="M33.333 37.4999C27.35 37.4999 22.5 42.3503 22.5 48.3332C22.5 54.3166 27.35 59.1666 33.333 59.1666C39.3163 59.1666 44.1663 54.3166 44.1663 48.3332C44.1595 42.3533 39.3133 37.5071 33.333 37.4999V37.4999ZM33.333 57.5C28.2705 57.5 24.1666 53.3961 24.1666 48.3332C24.1666 43.2708 28.2705 39.1669 33.333 39.1669C38.3958 39.1669 42.4997 43.2708 42.4997 48.3332C42.494 53.3934 38.3932 57.4942 33.333 57.5Z" fill="#EC5F5F"/>
<path d="M33.3328 45.8334C31.9522 45.8334 30.833 46.9526 30.833 48.3331C30.833 49.7141 31.9522 50.8333 33.3328 50.8333C34.7137 50.8333 35.8329 49.7141 35.8329 48.3331C35.8329 46.9526 34.7137 45.8334 33.3328 45.8334V45.8334ZM33.3328 49.1667C32.8727 49.1667 32.4996 48.7936 32.4996 48.3331C32.4996 47.8731 32.8727 47.5 33.3328 47.5C33.7932 47.5 34.1663 47.8731 34.1663 48.3331C34.1663 48.7936 33.7932 49.1667 33.3328 49.1667Z" fill="#EC5F5F"/>
<path d="M35.2089 41.0701C34.9178 40.9881 34.6058 41.0701 34.3925 41.2841C34.1793 41.4981 34.0984 41.8105 34.1816 42.1008C34.2643 42.3915 34.4982 42.6143 34.7919 42.6833C36.3426 43.0873 37.6602 44.1081 38.4388 45.5085C38.5822 45.7702 38.855 45.9354 39.1536 45.9411C39.4523 45.9468 39.7312 45.7919 39.8845 45.5356C40.0379 45.2792 40.0425 44.9607 39.8964 44.7002C38.8954 42.9004 37.2017 41.5885 35.2089 41.0701V41.0701Z" fill="#EC5F5F"/>
<path d="M27.6834 49.7927C27.5606 49.3563 27.112 49.0984 26.6729 49.2117C26.2342 49.325 25.9664 49.7679 26.0702 50.2093C26.3334 51.2373 26.814 52.1967 27.4793 53.0234C27.6636 53.2622 27.9622 53.3827 28.2606 53.3389C28.5585 53.295 28.8099 53.0932 28.9174 52.8117C29.025 52.5301 28.9724 52.2124 28.7793 51.9808C28.2625 51.338 27.8886 50.5919 27.6834 49.7927Z" fill="#EC5F5F"/>
<path d="M33.3331 54.1665C32.3447 54.1669 31.3723 53.9159 30.5075 53.4376C30.1047 53.2144 29.5974 53.3597 29.3742 53.7626C29.151 54.165 29.2964 54.6724 29.6992 54.8959C30.8116 55.5108 32.062 55.8332 33.3331 55.8332C33.7935 55.8332 34.1666 55.4601 34.1666 55.0001C34.1666 54.5396 33.7935 54.1665 33.3331 54.1665V54.1665Z" fill="#EC5F5F"/>
<path d="M48.3336 45.8334L47.2643 45.8132C46.9069 43.8127 46.1176 41.9142 44.9511 40.2498L45.7079 39.4941C46.0203 39.1817 46.1962 38.7575 46.1962 38.3154C46.1962 37.8733 46.0203 37.4491 45.7079 37.1366L44.5295 35.9583C44.2167 35.6455 43.7929 35.47 43.3508 35.47C42.9087 35.47 42.4845 35.6455 42.1721 35.9583L41.4011 36.7006C39.7345 35.539 37.8344 34.7544 35.8336 34.4015V33.3334C35.8336 32.4129 35.0874 31.6667 34.1669 31.6667H32.5003C31.5798 31.6667 30.8336 32.4129 30.8336 33.3334L30.8134 34.4026C28.813 34.7601 26.9144 35.5493 25.2501 36.7159L24.4944 35.959C24.1819 35.6466 23.7578 35.4708 23.3156 35.4708C22.8735 35.4708 22.4493 35.6466 22.1369 35.959L20.9585 37.1374C20.3081 37.7882 20.3081 38.8433 20.9585 39.4941L21.7012 40.2658C20.5393 41.9325 19.7546 43.8326 19.4017 45.8334H18.3336C17.4131 45.8334 16.667 46.5795 16.667 47.5V49.1667C16.667 50.0872 17.4131 50.8333 18.3336 50.8333L19.4029 50.8531C19.7603 52.854 20.5496 54.7525 21.7161 56.4165L20.9593 57.1726C20.6469 57.485 20.471 57.9092 20.471 58.3513C20.471 58.7934 20.6469 59.2173 20.9593 59.5301L22.1376 60.7084C22.4505 61.0208 22.8743 61.1967 23.3164 61.1967C23.7585 61.1967 24.1827 61.0208 24.4951 60.7084L25.2661 59.9657C26.9327 61.1277 28.8328 61.9123 30.8336 62.2648V63.3333C30.8336 64.2538 31.5798 65 32.5003 65H34.1669C35.0874 65 35.8336 64.2538 35.8336 63.3333L35.8534 62.2641C37.8542 61.9066 39.7528 61.1174 41.4167 59.9508L42.1728 60.7077C42.4852 61.0201 42.9094 61.1959 43.3516 61.1959C43.7937 61.1959 44.2175 61.0201 44.5303 60.7077L45.7087 59.5293C46.0215 59.2165 46.1969 58.7927 46.1969 58.3506C46.1969 57.9084 46.0215 57.4842 45.7087 57.1718L44.9659 56.4009C46.1279 54.7342 46.9126 52.8341 47.2651 50.8333H48.3336C49.254 50.8333 50.0002 50.0872 50.0002 49.1667V47.5C50.0002 46.5795 49.254 45.8334 48.3336 45.8334V45.8334ZM48.3336 49.1667H47.2651C46.4537 49.1712 45.7621 49.7576 45.6244 50.5575C45.31 52.3157 44.618 53.9846 43.5961 55.4491C43.128 56.1129 43.2024 57.0166 43.7727 57.5949L44.5295 58.3509L43.3512 59.5293L42.5943 58.7725C42.0164 58.2018 41.1127 58.1274 40.4493 58.5958C38.9849 59.6178 37.3159 60.3098 35.5578 60.6241C34.7578 60.7618 34.1719 61.4534 34.1669 62.2648V63.3333H32.5003V62.2648C32.4953 61.4534 31.9094 60.7618 31.1094 60.6241C29.3512 60.3098 27.6823 59.6178 26.2178 58.5958C25.9325 58.3963 25.5926 58.2891 25.2443 58.2891C24.8049 58.288 24.383 58.4619 24.0721 58.7725L23.316 59.5293L22.1376 58.3509L22.8945 57.5941C23.4652 57.0162 23.5396 56.1125 23.0711 55.4491C22.0491 53.9846 21.3572 52.3157 21.0428 50.5575C20.9051 49.7576 20.2135 49.1712 19.4017 49.1667H18.3336V47.5H19.4017C20.2135 47.4951 20.9051 46.9091 21.0428 46.1092C21.3572 44.351 22.0491 42.6821 23.0711 41.2176C23.5396 40.5542 23.4652 39.6505 22.8945 39.0726L22.1376 38.3158L23.316 37.1374L24.0728 37.8942C24.6508 38.4645 25.5545 38.5393 26.2178 38.0709C27.6823 37.0489 29.3512 36.3569 31.1094 36.0426C31.9094 35.9049 32.4953 35.2133 32.5003 34.4015V33.3334H34.1669V34.4015C34.1719 35.2133 34.7578 35.9049 35.5578 36.0426C37.3159 36.3569 38.9849 37.0489 40.4493 38.0709C41.1131 38.5389 42.0168 38.4645 42.5951 37.8942L43.3512 37.1374L44.5295 38.3158L43.7727 39.0726C43.202 39.6505 43.1276 40.5542 43.5961 41.2176C44.618 42.6821 45.31 44.351 45.6244 46.1092C45.7621 46.9091 46.4537 47.4951 47.2651 47.5H48.3336V49.1667Z" fill="#EC5F5F"/>
<path d="M16.3808 53.6191C16.0554 53.2937 15.5282 53.2937 15.2028 53.6191L14.5592 54.2623C13.9466 53.8255 13.2424 53.5333 12.5001 53.4082V52.4999C12.5001 52.0398 12.127 51.6667 11.6669 51.6667C11.2065 51.6667 10.8334 52.0398 10.8334 52.4999V53.4082C10.0911 53.5333 9.38728 53.8255 8.77426 54.2623L8.1311 53.6191C7.92168 53.4024 7.61192 53.3155 7.32048 53.3918C7.02904 53.468 6.80168 53.6958 6.72539 53.9868C6.64909 54.2783 6.73607 54.588 6.95274 54.7975L7.5959 55.4406C7.15912 56.0536 6.86691 56.7578 6.74179 57.4998H5.83351C5.37308 57.4998 5 57.8729 5 58.3333C5 58.7934 5.37308 59.1664 5.83351 59.1664H6.74179C6.86691 59.9088 7.15912 60.613 7.5959 61.2256L6.95274 61.8692C6.73607 62.0782 6.64909 62.388 6.72539 62.6794C6.80168 62.9708 7.02904 63.1982 7.32048 63.2745C7.61192 63.3508 7.92168 63.2642 8.1311 63.0475L8.77426 62.404C9.38728 62.8411 10.0911 63.133 10.8334 63.2581V64.1667C10.8334 64.6268 11.2065 64.9999 11.6669 64.9999C12.127 64.9999 12.5001 64.6268 12.5001 64.1667V63.2581C13.2424 63.133 13.9466 62.8411 14.5592 62.404L15.2028 63.0475C15.4118 63.2642 15.7216 63.3508 16.013 63.2745C16.3045 63.1982 16.5318 62.9708 16.6081 62.6794C16.6844 62.388 16.5974 62.0782 16.3808 61.8692L15.7376 61.2256C16.1748 60.613 16.4666 59.9088 16.5917 59.1664H17.5C17.9604 59.1664 18.3335 58.7934 18.3335 58.3333C18.3335 57.8729 17.9604 57.4998 17.5 57.4998H16.5917C16.4666 56.7578 16.1748 56.0536 15.7376 55.4406L16.3808 54.7975C16.7062 54.4721 16.7062 53.9445 16.3808 53.6191V53.6191ZM11.6669 61.6666C9.82597 61.6666 8.33328 60.1743 8.33328 58.3333C8.33328 56.4923 9.82597 55 11.6669 55C13.5079 55 15.0002 56.4923 15.0002 58.3333C15.0002 60.1743 13.5079 61.6666 11.6669 61.6666Z" fill="#37495E"/>
<path d="M5.83363 34.1666H10.8336C11.754 34.1666 12.5002 33.4204 12.5002 32.4999V27.5C12.5002 26.5795 11.754 25.8334 10.8336 25.8334H5.83363C4.91315 25.8334 4.16699 26.5795 4.16699 27.5V32.4999C4.16699 33.4204 4.91315 34.1666 5.83363 34.1666ZM5.83363 27.5H10.8336V32.4999H5.83363V27.5Z" fill="#37495E"/>
<path d="M34.9997 26.6669C34.9997 26.2065 34.6263 25.8334 34.1662 25.8334H14.1661C13.7061 25.8334 13.333 26.2065 13.333 26.6669C13.333 27.1269 13.7061 27.5 14.1661 27.5H34.1662C34.6263 27.5 34.9997 27.1269 34.9997 26.6669V26.6669Z" fill="#37495E"/>
<path d="M18.3336 36.6668C18.3336 36.2063 17.9606 35.8333 17.5001 35.8333H5.00012C4.54007 35.8333 4.16699 36.2063 4.16699 36.6668C4.16699 37.1268 4.54007 37.4999 5.00012 37.4999H17.5001C17.9606 37.4999 18.3336 37.1268 18.3336 36.6668Z" fill="#37495E"/>
<path d="M15.8335 39.1667H5.00012C4.54007 39.1667 4.16699 39.5398 4.16699 39.9999C4.16699 40.4603 4.54007 40.8334 5.00012 40.8334H15.8335C16.2939 40.8334 16.667 40.4603 16.667 39.9999C16.667 39.5398 16.2939 39.1667 15.8335 39.1667Z" fill="#37495E"/>
<path d="M5.00012 42.5001C4.54007 42.5001 4.16699 42.8732 4.16699 43.3333C4.16699 43.7937 4.54007 44.1668 5.00012 44.1668H14.1668C14.6273 44.1668 15.0004 43.7937 15.0004 43.3333C15.0004 42.8732 14.6273 42.5001 14.1668 42.5001H5.00012Z" fill="#37495E"/>
<path d="M21.6662 33.3334C21.6662 32.873 21.2931 32.4999 20.8327 32.4999H14.1661C13.7061 32.4999 13.333 32.873 13.333 33.3334C13.333 33.7934 13.7061 34.1665 14.1661 34.1665H20.8327C21.2931 34.1665 21.6662 33.7934 21.6662 33.3334Z" fill="#37495E"/>
<path d="M30.8329 30.0001C30.8329 29.5397 30.4599 29.1666 29.9994 29.1666H14.1661C13.7061 29.1666 13.333 29.5397 13.333 30.0001C13.333 30.4602 13.7061 30.8333 14.1661 30.8333H29.9994C30.4599 30.8333 30.8329 30.4602 30.8329 30.0001Z" fill="#37495E"/>
<path d="M0.833511 37.4998C1.29356 37.4998 1.66664 37.1268 1.66664 36.6667V23.3332H37.5V32.4999C37.5 32.9604 37.8731 33.3334 38.3335 33.3334C38.7936 33.3334 39.1666 32.9604 39.1666 32.4999V17.5002C39.1666 16.1192 38.0474 15 36.6669 15H2.50015C1.11923 15 0 16.1192 0 17.5002V36.6667C0 37.1268 0.373077 37.4998 0.833511 37.4998ZM2.50015 16.6666H36.6669C37.1269 16.6666 37.5 17.0397 37.5 17.5002V21.6666H1.66664V17.5002C1.66664 17.0397 2.03972 16.6666 2.50015 16.6666V16.6666Z" fill="#37495E"/>
<path d="M34.9997 26.6669C34.9997 26.2065 34.6263 25.8334 34.1662 25.8334H14.1661C13.7061 25.8334 13.333 26.2065 13.333 26.6669C13.333 27.1269 13.7061 27.5 14.1661 27.5H34.1662C34.6263 27.5 34.9997 27.1269 34.9997 26.6669V26.6669Z" fill="#37495E"/>
<path d="M21.6662 33.3334C21.6662 32.873 21.2931 32.4999 20.8327 32.4999H14.1661C13.7061 32.4999 13.333 32.873 13.333 33.3334C13.333 33.7934 13.7061 34.1665 14.1661 34.1665H20.8327C21.2931 34.1665 21.6662 33.7934 21.6662 33.3334Z" fill="#37495E"/>
<path d="M30.8329 30.0001C30.8329 29.5397 30.4599 29.1666 29.9994 29.1666H14.1661C13.7061 29.1666 13.333 29.5397 13.333 30.0001C13.333 30.4602 13.7061 30.8333 14.1661 30.8333H29.9994C30.4599 30.8333 30.8329 30.4602 30.8329 30.0001Z" fill="#37495E"/>
</svg>
