<svg width="69" height="66" viewBox="0 0 69 66" fill="none" xmlns="http://www.w3.org/2000/svg">
<circle cx="36" cy="33" r="33" fill="#FCE3E3"/>
<path d="M4.65645 58.0001C2.08871 58.0001 0 55.9106 0 53.3437C0 51.9646 0.605645 50.6646 1.6621 49.7775L10.3492 42.4824L11.3863 43.717L2.69919 51.0122C2.00887 51.5928 1.6129 52.4412 1.6129 53.3437C1.6129 55.0219 2.97823 56.3872 4.65645 56.3872C5.55806 56.3872 6.40806 55.9912 6.9879 55.3001L14.2823 46.6138L15.5169 47.6501L8.22258 56.3372C7.33629 57.3945 6.03629 58.0001 4.65645 58.0001Z" fill="#37495E"/>
<path d="M5.95041 53.1899C5.65133 53.489 5.16642 53.489 4.86734 53.1899L4.81009 53.1326C4.51101 52.8335 4.51101 52.3486 4.81009 52.0496C5.10917 51.7505 5.59407 51.7505 5.89315 52.0496L5.95041 52.1068C6.24949 52.4059 6.24949 52.8908 5.95041 53.1899ZM8.20243 50.9371C7.88753 51.2519 7.37699 51.2519 7.0621 50.9371C6.74721 50.6222 6.74721 50.1116 7.0621 49.7967C7.37699 49.4818 7.88753 49.4818 8.20243 49.7967C8.51732 50.1116 8.51732 50.6222 8.20243 50.9371ZM10.4839 48.6564C10.169 48.9713 9.65845 48.9713 9.34355 48.6564C9.02866 48.3415 9.02866 47.831 9.34355 47.5161C9.65845 47.2012 10.169 47.2012 10.4839 47.5161C10.7988 47.831 10.7988 48.3415 10.4839 48.6564Z" fill="#37495E"/>
<path d="M11.7629 24.129C11.2508 24.129 10.7492 23.921 10.3863 23.5597L6.11774 19.2903H2.41935C1.08548 19.2903 0 18.2048 0 16.871V10.4194C0 9.08548 1.08548 8 2.41935 8H21.7742C23.1081 8 24.1935 9.08548 24.1935 10.4194V16.871C24.1935 18.2048 23.1081 19.2903 21.7742 19.2903H13.7097V22.1823C13.7097 23.2556 12.8363 24.129 11.7629 24.129ZM2.41935 9.6129C1.975 9.6129 1.6129 9.97419 1.6129 10.4194V16.871C1.6129 17.3161 1.975 17.6774 2.41935 17.6774H6.78548L11.5266 22.4185C11.7194 22.6105 12.0968 22.454 12.0968 22.1823V17.6774H21.7742C22.2185 17.6774 22.5806 17.3161 22.5806 16.871V10.4194C22.5806 9.97419 22.2185 9.6129 21.7742 9.6129H2.41935Z" fill="#37495E"/>
<path d="M43.548 35.4194V56.3871H41.9351V43.4839H35.4835V56.3871H33.8706V49.9355H27.4189V58H49.9996V35.4194H43.548ZM32.2577 56.3871H29.0318V51.5484H32.2577V56.3871ZM37.0964 45.0968H40.3222V56.3871H37.0964V45.0968ZM48.3867 56.3871H45.1609V37.0323H48.3867V56.3871Z" fill="#FF5252"/>
<path d="M31.9612 29.6839L29.8886 30.9693C30.8733 32.4847 31.4515 34.2879 31.4515 36.2258C31.4515 41.5621 27.1104 45.9032 21.7741 45.9032C16.4378 45.9032 12.0967 41.5621 12.0967 36.2258C12.0967 30.8895 16.4378 26.5484 21.7741 26.5484C23.5322 26.5484 25.1774 27.0266 26.5999 27.85L27.8193 25.154C27.5749 24.6677 27.3669 24.1605 27.1919 23.6371C25.529 22.9185 23.6983 22.5161 21.7741 22.5161C14.2145 22.5161 8.06445 28.6661 8.06445 36.2258C8.06445 43.7855 14.2145 49.9355 21.7741 49.9355C29.3338 49.9355 35.4838 43.7855 35.4838 36.2258C35.4838 34.3016 35.0814 32.471 34.3628 30.8072C33.5145 30.5242 32.708 30.1476 31.9612 29.6839Z" fill="#37495E" fill-opacity="0.15"/>
<path d="M35.1778 16.8709L34.5326 13.6451H30.6455V15.258H33.21L34.5391 21.9024C33.6737 22.2709 33.0649 23.1298 33.0649 24.129C33.0649 25.4629 34.1503 26.5484 35.4842 26.5484C36.8181 26.5484 37.9036 25.4629 37.9036 24.129C37.9036 23.8451 37.8455 23.5758 37.7552 23.3226H41.2786C41.1874 23.5758 41.1294 23.8451 41.1294 24.129C41.1294 25.4629 42.2149 26.5484 43.5487 26.5484C44.8826 26.5484 45.9681 25.4629 45.9681 24.129C45.9681 23.2145 45.452 22.4258 44.7012 22.0153L45.7455 19.9266C45.8907 19.6355 45.9681 19.308 45.9681 18.9822C45.9681 17.8185 45.0213 16.8709 43.8568 16.8709H35.1778ZM36.2907 24.129C36.2907 24.5742 35.9286 24.9355 35.4842 24.9355C35.0399 24.9355 34.6778 24.5742 34.6778 24.129C34.6778 23.6839 35.0399 23.3226 35.4842 23.3226C35.9286 23.3226 36.2907 23.6839 36.2907 24.129ZM43.5487 24.9355C43.1044 24.9355 42.7423 24.5742 42.7423 24.129C42.7423 23.6839 43.1044 23.3226 43.5487 23.3226C43.9931 23.3226 44.3552 23.6839 44.3552 24.129C44.3552 24.5742 43.9931 24.9355 43.5487 24.9355ZM44.3552 18.9822C44.3552 19.0597 44.3374 19.1363 44.3028 19.2048L43.0503 21.7097H36.1455L35.5003 18.4839H43.8568C44.1318 18.4839 44.3552 18.7072 44.3552 18.9822Z" fill="#FF5252"/>
<path d="M46.482 11.5685C43.8481 8.91855 40.1925 7.65 36.4562 8.08467C31.1981 8.69596 26.8941 12.7702 25.9892 17.9911C25.5634 20.4484 25.8884 22.9202 26.9296 25.1653L26.2094 26.7556C24.8183 26.1024 23.307 25.7419 21.7739 25.7419C15.9933 25.7419 11.29 30.4452 11.29 36.2258C11.29 42.0064 15.9933 46.7097 21.7739 46.7097C27.5546 46.7097 32.2578 42.0064 32.2578 36.2258C32.2578 34.4766 31.8191 32.7677 30.9868 31.2363L31.9699 30.6266C34.261 31.9242 36.8473 32.4306 39.4836 32.0911C44.8658 31.396 49.2489 26.9911 49.9062 21.6177C50.3634 17.8806 49.115 14.2169 46.482 11.5685ZM30.6038 37.0323C30.4989 38.1855 30.1707 39.2734 29.665 40.2581H26.2642C26.4457 39.2605 26.5578 38.1766 26.5941 37.0323H30.6038ZM24.6118 40.2581H18.936C18.7392 39.2831 18.607 38.1992 18.565 37.0323H24.9828C24.9408 38.1992 24.8086 39.2831 24.6118 40.2581ZM12.9441 37.0323H16.9529C16.99 38.1766 17.1013 39.2605 17.2828 40.2581H13.882C13.3771 39.2734 13.0481 38.1855 12.9441 37.0323ZM12.9441 35.4193C13.0489 34.2661 13.3771 33.1782 13.8828 32.1935H17.2836C17.1021 33.1911 16.99 34.275 16.9537 35.4193H12.9441ZM18.565 35.4193C18.607 34.2524 18.74 33.1685 18.936 32.1935H24.2457C24.3304 32.5734 24.5191 32.9145 24.7828 33.1839C24.8868 33.9064 24.9433 34.6573 24.9707 35.4193H18.565ZM25.2642 28.8452C25.1142 28.5064 24.9554 28.1911 24.786 27.9048C25.0441 27.9992 25.2965 28.1048 25.5457 28.2234L25.2642 28.8452ZM24.1989 30.5806H19.3473C19.9836 28.5863 20.9078 27.3548 21.7739 27.3548C22.6304 27.3548 23.5699 28.6323 24.1989 30.5806ZM18.7787 27.8863C18.3328 28.6274 17.9537 29.5363 17.657 30.5806H14.936C15.9417 29.3653 17.2675 28.4306 18.7787 27.8863ZM14.936 41.871H17.657C17.9537 42.9153 18.3328 43.8242 18.7787 44.5653C17.2675 44.021 15.9417 43.0863 14.936 41.871ZM19.3473 41.871H24.2005C23.5642 43.8653 22.64 45.0968 21.7739 45.0968C20.9078 45.0968 19.9836 43.8653 19.3473 41.871ZM24.7691 44.5653C25.215 43.8242 25.5941 42.9153 25.8908 41.871H28.6118C27.6062 43.0863 26.2804 44.021 24.7691 44.5653ZM30.6038 35.4193H26.5836C26.565 34.8629 26.5279 34.3161 26.4715 33.7766C26.7779 33.7435 27.0771 33.6613 27.3417 33.4976L29.6118 32.0903C30.161 33.125 30.4973 34.254 30.6038 35.4193ZM48.3054 21.4234C47.736 26.0766 43.9392 29.8903 39.2779 30.4919C36.8441 30.8056 34.4634 30.2887 32.3868 28.9984L31.9618 28.7347L26.4933 32.1258C26.2078 32.3008 25.8062 32.0758 25.8062 31.7444V31.6581C25.8062 31.5944 25.8199 31.5306 25.8457 31.4734L28.7118 25.1363L28.5392 24.7919C27.5215 22.7661 27.1892 20.5097 27.5779 18.2669C28.3618 13.7452 32.0892 10.2169 36.6425 9.68629C37.0618 9.63709 37.4796 9.61371 37.8949 9.61371C40.6909 9.61371 43.3505 10.7056 45.3376 12.7056C47.6207 15.0016 48.7021 18.179 48.3054 21.4234Z" fill="#37495E"/>
</svg>
