<svg width="78" height="78" viewBox="0 0 78 78" fill="none" xmlns="http://www.w3.org/2000/svg">
<circle cx="39" cy="39" r="39" fill="#FCE3E3"/>
<path d="M42.0271 32.1429C46.3664 32.1429 49.8842 28.6251 49.8842 24.2857C49.8842 19.9464 46.3664 16.4286 42.0271 16.4286C37.6877 16.4286 34.1699 19.9464 34.1699 24.2857C34.1699 28.6251 37.6877 32.1429 42.0271 32.1429Z" fill="#37495E" fill-opacity="0.15"/>
<path d="M26.0001 29.5161C21.5533 29.5161 17.9355 33.1339 17.9355 37.5806C17.9355 42.0274 21.5533 45.6451 26.0001 45.6451C30.4468 45.6451 34.0646 42.0274 34.0646 37.5806C34.0646 33.1339 30.4468 29.5161 26.0001 29.5161ZM26.0001 44.0322C25.7476 44.0322 25.2073 43.2072 24.821 41.6129H27.1791C26.7928 43.2072 26.2525 44.0322 26.0001 44.0322ZM24.5331 40C24.471 39.5048 24.4251 38.9701 24.4033 38.3871H27.5984C27.5767 38.9701 27.5299 39.5048 27.4686 40H24.5331ZM26.0001 31.129C26.2525 31.129 26.7928 31.954 27.1791 33.5484H24.821C25.2073 31.954 25.7476 31.129 26.0001 31.129ZM27.467 35.1613C27.5291 35.6564 27.5751 36.1911 27.5968 36.7742H24.4017C24.4235 36.1911 24.4702 35.6564 24.5315 35.1613H27.467ZM22.7896 36.7742H19.6041C19.6751 36.2113 19.8162 35.6701 20.0235 35.1613H22.9097C22.8501 35.6911 22.8089 36.2314 22.7896 36.7742ZM19.6041 38.3871H22.7896C22.8089 38.9298 22.8501 39.4701 22.9097 40H20.0235C19.817 39.4911 19.6751 38.95 19.6041 38.3871ZM29.2105 38.3871H32.396C32.3251 38.95 32.1839 39.4911 31.9767 40H29.0904C29.1501 39.4701 29.1912 38.9298 29.2105 38.3871ZM29.2105 36.7742C29.1912 36.2314 29.1501 35.6911 29.0904 35.1613H31.9767C32.1831 35.6701 32.3251 36.2113 32.396 36.7742H29.2105ZM31.0283 33.5484H28.8355C28.6807 32.8072 28.4807 32.1201 28.2291 31.5339C29.3364 31.9435 30.3017 32.6443 31.0283 33.5484ZM23.771 31.5339C23.5194 32.1201 23.3194 32.8072 23.1646 33.5484H20.9718C21.6984 32.6443 22.6638 31.9435 23.771 31.5339ZM20.9718 41.6129H23.1646C23.3194 42.354 23.5194 43.0411 23.771 43.6274C22.6638 43.2177 21.6984 42.5169 20.9718 41.6129ZM28.2291 43.6274C28.4807 43.0411 28.6807 42.354 28.8355 41.6129H31.0283C30.3017 42.5169 29.3364 43.2177 28.2291 43.6274Z" fill="#EC5F5F"/>
<path d="M51 26.9065V22.4492L48.8831 21.8702C48.8137 21.6855 48.7371 21.5016 48.6524 21.3185L49.7411 19.4097L46.5895 16.2589L44.6823 17.3484C44.5 17.2645 44.3153 17.1871 44.1298 17.1177L43.5508 15H39.0944L38.5153 17.1169C38.3298 17.1863 38.1452 17.2637 37.9629 17.3476L36.0556 16.2581L32.904 19.4089L33.9927 21.3177C33.9089 21.5008 33.8315 21.6847 33.7621 21.8694L31.6452 22.4484V23.0645H20.3548V15H1V31.129H4.22581V40.421C2.28226 41.7242 1 43.9403 1 46.4516V46.6073C1 48.2492 1.56452 49.8589 2.59032 51.1419L4.22581 53.1863V54.5161C4.22581 56.7395 6.03468 58.5484 8.25806 58.5484C10.2048 58.5484 11.8339 57.1605 12.2089 55.3226H17.7089L16.4992 60.1613H13.9032C12.5694 60.1613 11.4839 61.2468 11.4839 62.5806V65H40.5161V62.5806C40.5161 61.2468 39.4306 60.1613 38.0968 60.1613H35.5008L34.2911 55.3226H43.7419C45.6887 55.3226 47.3177 53.9347 47.6927 52.0968H48.5806C49.9145 52.0968 51 51.0113 51 49.6774V43.2258C51 41.8919 49.9145 40.8065 48.5806 40.8065H47.7742V31.9121L49.7411 29.9452L48.6524 28.0363C48.7363 27.8532 48.8137 27.6694 48.8831 27.4847L51 26.9065ZM42.9355 39.6661L41.4202 38.15C41.0573 37.7887 40.5556 37.5806 40.0435 37.5806C38.9702 37.5806 38.0968 38.454 38.0968 39.5274V40.8065H37.2903C35.9565 40.8065 34.871 41.8919 34.871 43.2258V47.2581H15.4855C15.5048 47.0419 15.5161 46.825 15.5161 46.6073V46.4516C15.5161 42.7218 12.6879 39.6435 9.06452 39.2411V31.129H20.3548V27.9032H33.9371C33.9565 27.9476 33.9726 27.9919 33.9927 28.0363L32.904 29.9452L36.0556 33.096L37.9629 32.0065C38.1452 32.0903 38.3298 32.1677 38.5153 32.2371L39.0944 34.3548H42.9355V39.6661ZM18.7419 28.7387L13.6194 25.0129C13.7194 24.9065 13.8145 24.7952 13.9032 24.6774L18.7419 18.2258V28.7387ZM12.6129 23.7097C12.1589 24.3161 11.4347 24.6774 10.6774 24.6774C9.92016 24.6774 9.19597 24.3161 8.74194 23.7105L3.41855 16.6129H17.9355L12.6129 23.7097ZM7.45161 24.6782C7.54032 24.796 7.63548 24.9073 7.73548 25.0137L2.6129 28.7387V18.2258L7.45161 24.6782ZM9.14839 25.9806C9.62903 26.1782 10.1476 26.2903 10.6774 26.2903C11.2073 26.2903 11.725 26.1782 12.2065 25.9806L17.0685 29.5161H4.28629L9.14839 25.9806ZM31.6452 24.6774V26.2903H20.3548V24.6774H31.6452ZM5.83871 31.129H7.45161V39.2411C6.89194 39.3032 6.35323 39.4347 5.83871 39.6169V31.129ZM3.85 50.1339C3.05242 49.1371 2.6129 47.8839 2.6129 46.6073V46.4516C2.6129 43.3395 5.14516 40.8065 8.25806 40.8065C11.371 40.8065 13.9032 43.3395 13.9032 46.4516V46.6073C13.9032 47.8839 13.4637 49.1371 12.6661 50.1339L11.0968 52.0968H9.06452V48.0645H7.45161V52.0968H5.41935L3.85 50.1339ZM8.25806 56.9355C6.92419 56.9355 5.83871 55.85 5.83871 54.5161V53.7097H10.6774V54.5161C10.6774 55.85 9.59194 56.9355 8.25806 56.9355ZM38.9032 62.5806V63.3871H13.0968V62.5806C13.0968 62.1355 13.4589 61.7742 13.9032 61.7742H38.0968C38.5411 61.7742 38.9032 62.1355 38.9032 62.5806ZM33.8379 60.1613H18.1621L19.3718 55.3226H32.6282L33.8379 60.1613ZM43.7419 53.7097H12.2903V53.1863L13.9258 51.1427C14.4694 50.4629 14.879 49.6903 15.1476 48.8718H34.871V49.6782C34.871 51.0121 35.9565 52.0976 37.2903 52.0976H46.0129C45.679 53.0331 44.7919 53.7097 43.7419 53.7097ZM49.3871 43.2258V49.6774C49.3871 50.1226 49.025 50.4839 48.5806 50.4839H37.2903C36.846 50.4839 36.4839 50.1226 36.4839 49.6774V43.2258C36.4839 42.7806 36.846 42.4194 37.2903 42.4194H39.7097V39.5274C39.7097 39.2556 40.0863 39.0992 40.2798 39.2911L43.4081 42.4194H48.5806C49.025 42.4194 49.3871 42.7806 49.3871 43.2258ZM44.5484 40.8065V32.0629C44.5927 32.0435 44.6379 32.0274 44.6823 32.0073L46.1613 32.8516V40.8065H44.5484ZM47.6185 26.1589L47.4879 26.5815C47.3734 26.9516 47.2186 27.3242 47.0266 27.6871L46.8202 28.0782L47.7306 29.6742L46.3194 31.0847L44.7234 30.1734L44.3315 30.3815C43.9726 30.5718 43.6008 30.7274 43.2274 30.8427L42.804 30.9726L42.3202 32.7419H40.325L39.8411 30.9734L39.4177 30.8435C39.0444 30.7274 38.6726 30.5726 38.3137 30.3823L37.9218 30.1742L36.3258 31.0855L34.9145 29.675L35.825 28.079L35.6185 27.6879C35.4266 27.325 35.2718 26.9524 35.1573 26.5823L35.0266 26.1597L33.2581 25.6742V23.6798L35.0266 23.1952L35.1573 22.7726C35.2718 22.4024 35.4266 22.0298 35.6185 21.6669L35.825 21.2758L34.9145 19.6798L36.3258 18.2694L37.9218 19.1806L38.3137 18.9726C38.6726 18.7823 39.0444 18.6266 39.4177 18.5113L39.8411 18.3815L40.325 16.6129H42.3202L42.804 18.3815L43.2274 18.5113C43.6008 18.6274 43.9726 18.7823 44.3315 18.9726L44.7234 19.1806L46.3194 18.2694L47.7306 19.6798L46.8202 21.2758L47.0266 21.6669C47.2186 22.0298 47.3734 22.4024 47.4879 22.7726L47.6185 23.1952L49.3871 23.6806V25.675L47.6185 26.1589Z" fill="#37495E"/>
<path d="M41.3221 19.8386C38.6536 19.8386 36.4834 22.0088 36.4834 24.6773C36.4834 27.3459 38.6536 29.516 41.3221 29.516C43.9907 29.516 46.1608 27.3459 46.1608 24.6773C46.1608 22.0088 43.9907 19.8386 41.3221 19.8386ZM41.3221 27.9031C39.5431 27.9031 38.0963 26.4564 38.0963 24.6773C38.0963 22.8983 39.5431 21.4515 41.3221 21.4515C43.1011 21.4515 44.5479 22.8983 44.5479 24.6773C44.5479 26.4564 43.1011 27.9031 41.3221 27.9031Z" fill="#37495E"/>
<path d="M8.25822 48.8709C6.92435 48.8709 5.83887 47.7855 5.83887 46.4516C5.83887 45.1177 6.92435 44.0322 8.25822 44.0322C9.59209 44.0322 10.6776 45.1177 10.6776 46.4516C10.6776 47.7855 9.59209 48.8709 8.25822 48.8709Z" fill="#37495E"/>
</svg>
