<svg width="29" height="32" viewBox="0 0 29 32" fill="none" xmlns="http://www.w3.org/2000/svg">
<path d="M6.48436 24.6288H17.0704C17.3326 24.6288 17.5625 24.4385 17.6335 24.1621L19.9774 15.1568C20.0277 14.9627 19.9932 14.7541 19.8823 14.5928C19.7712 14.432 19.5985 14.337 19.4142 14.337H5.13167L4.71282 12.268C4.65331 11.9734 4.41527 11.7642 4.14061 11.7642H0.585936C0.262145 11.7642 0 12.0519 0 12.4074C0 12.763 0.262145 13.0506 0.585936 13.0506H3.67034L5.78627 23.503C5.16371 23.8001 4.72655 24.4803 4.72655 25.272C4.72655 26.336 5.51512 27.2016 6.48436 27.2016H17.0704C17.3944 27.2016 17.6564 26.914 17.6564 26.5584C17.6564 26.203 17.3944 25.9152 17.0704 25.9152H6.48436C6.16163 25.9152 5.89842 25.6269 5.89842 25.272C5.89842 24.917 6.16163 24.6288 6.48436 24.6288Z" fill="#AAAAAA"/>
<path d="M5.89844 29.1313C5.89844 30.1955 6.687 31.061 7.65639 31.061C8.62562 31.061 9.41418 30.1955 9.41418 29.1313C9.41418 28.0673 8.62562 27.2017 7.65639 27.2017C6.687 27.2017 5.89844 28.0673 5.89844 29.1313Z" fill="#B8B8B8"/>
<path d="M14.1406 29.1313C14.1406 30.1955 14.9292 31.061 15.8984 31.061C16.8678 31.061 17.6562 30.1955 17.6562 29.1313C17.6562 28.0673 16.8678 27.2017 15.8984 27.2017C14.9292 27.2017 14.1406 28.0673 14.1406 29.1313Z" fill="#B8B8B8"/>
</svg>
