<svg width="18" height="18" viewBox="0 0 18 18" fill="none" xmlns="http://www.w3.org/2000/svg">
<path d="M17.1822 0H10.6368C10.1849 0 9.81858 0.366328 9.81858 0.818191C9.81858 1.27005 10.1849 1.63638 10.6368 1.63638H15.207L6.78555 10.0578C6.46601 10.3774 6.46601 10.8954 6.78555 11.2149C6.94526 11.3747 7.15465 11.4545 7.36404 11.4545C7.57343 11.4545 7.78286 11.3747 7.94261 11.2149L16.3641 2.79344V7.36365C16.3641 7.81551 16.7304 8.18184 17.1823 8.18184C17.6341 8.18184 18.0004 7.81551 18.0004 7.36365V0.818191C18.0004 0.366328 17.6341 0 17.1822 0Z" fill="#EC5F5F"/>
<path d="M13.9091 8.18178C13.4572 8.18178 13.0909 8.54811 13.0909 8.99997V16.3636H1.63635V4.90905H8.99999C9.45186 4.90905 9.81818 4.54272 9.81818 4.09086C9.81818 3.639 9.45186 3.27271 8.99999 3.27271H0.818191C0.366328 3.27271 0 3.63903 0 4.0909V17.1818C0 17.6336 0.366328 18 0.818191 18H13.9091C14.361 18 14.7273 17.6336 14.7273 17.1818V8.99997C14.7273 8.54811 14.3609 8.18178 13.9091 8.18178Z" fill="#EC5F5F"/>
</svg>
